<svg class="main-svg" xmlns="http://www.w3.org/2000/svg" xmlns:xlink="http://www.w3.org/1999/xlink" width="4000" height="2000" style="" viewBox="0 0 2000 1000"><rect x="0" y="0" width="2000" height="1000" style="fill: rgb(250, 250, 250); fill-opacity: 1;"/><defs id="defs-c387b3"><g class="clips"><clipPath id="clipc387b3xyplot" class="plotclip"><rect width="1840" height="820"/></clipPath><clipPath class="axesclip" id="clipc387b3x"><rect x="80" y="0" width="1840" height="1000"/></clipPath><clipPath class="axesclip" id="clipc387b3y"><rect x="0" y="100" width="2000" height="820"/></clipPath><clipPath class="axesclip" id="clipc387b3xy"><rect x="80" y="100" width="1840" height="820"/></clipPath></g><g class="gradients"/></defs><g class="bglayer"/><g class="layer-below"><g class="imagelayer"/><g class="shapelayer"/></g><g class="cartesianlayer"><g class="subplot xy"><g class="layer-subplot"><g class="shapelayer"><path data-index="0" fill-rule="evenodd" d="M414.29,445.57L707.14,445.57" clip-path="url('#clipc387b3xy')" style="opacity: 1; stroke: rgb(0, 0, 0); stroke-opacity: 1; fill: rgb(0, 0, 0); fill-opacity: 0; stroke-width: 3px;"/><path data-index="1" fill-rule="evenodd" d="M414.29,368.49L707.14,368.49" clip-path="url('#clipc387b3xy')" style="opacity: 1; stroke: rgb(0, 0, 0); stroke-opacity: 1; fill: rgb(0, 0, 0); fill-opacity: 0; stroke-width: 3px;"/><path data-index="2" fill-rule="evenodd" d="M707.14,551L707.14,445.57" clip-path="url('#clipc387b3xy')" style="opacity: 1; stroke: rgb(0, 0, 0); stroke-opacity: 1; fill: rgb(0, 0, 0); fill-opacity: 0; stroke-width: 3px;"/><path data-index="3" fill-rule="evenodd" d="M707.14,368.49L707.14,263.06" clip-path="url('#clipc387b3xy')" style="opacity: 1; stroke: rgb(0, 0, 0); stroke-opacity: 1; fill: rgb(0, 0, 0); fill-opacity: 0; stroke-width: 3px;"/><path data-index="4" fill-rule="evenodd" d="M784.22,473.92L784.22,340.14" clip-path="url('#clipc387b3xy')" style="opacity: 1; stroke: rgb(0, 0, 0); stroke-opacity: 1; fill: rgb(0, 0, 0); fill-opacity: 0; stroke-width: 3px;"/><path data-index="5" fill-rule="evenodd" d="M707.14,551L1000,551" clip-path="url('#clipc387b3xy')" style="opacity: 1; stroke: rgb(0, 0, 0); stroke-opacity: 1; fill: rgb(0, 0, 0); fill-opacity: 0; stroke-width: 3px;"/><path data-index="6" fill-rule="evenodd" d="M784.22,473.92L1000,473.92" clip-path="url('#clipc387b3xy')" style="opacity: 1; stroke: rgb(0, 0, 0); stroke-opacity: 1; fill: rgb(0, 0, 0); fill-opacity: 0; stroke-width: 3px;"/><path data-index="7" fill-rule="evenodd" d="M1077.08,498.29L1077.08,526.63" clip-path="url('#clipc387b3xy')" style="opacity: 1; stroke: rgb(0, 0, 0); stroke-opacity: 1; fill: rgb(0, 0, 0); fill-opacity: 0; stroke-width: 3px;"/><path data-index="8" fill-rule="evenodd" d="M1000,473.92L1000,421.21" clip-path="url('#clipc387b3xy')" style="opacity: 1; stroke: rgb(0, 0, 0); stroke-opacity: 1; fill: rgb(0, 0, 0); fill-opacity: 0; stroke-width: 3px;"/><path data-index="9" fill-rule="evenodd" d="M1000,603.71L1000,551" clip-path="url('#clipc387b3xy')" style="opacity: 1; stroke: rgb(0, 0, 0); stroke-opacity: 1; fill: rgb(0, 0, 0); fill-opacity: 0; stroke-width: 3px;"/><path data-index="10" fill-rule="evenodd" d="M1000,603.71L1585.71,603.71" clip-path="url('#clipc387b3xy')" style="opacity: 1; stroke: rgb(0, 0, 0); stroke-opacity: 1; fill: rgb(0, 0, 0); fill-opacity: 0; stroke-width: 3px;"/><path data-index="11" fill-rule="evenodd" d="M1077.08,526.63L1585.71,526.63" clip-path="url('#clipc387b3xy')" style="opacity: 1; stroke: rgb(0, 0, 0); stroke-opacity: 1; fill: rgb(0, 0, 0); fill-opacity: 0; stroke-width: 3px;"/><path data-index="12" fill-rule="evenodd" d="M1077.08,498.29L1585.71,498.29" clip-path="url('#clipc387b3xy')" style="opacity: 1; stroke: rgb(0, 0, 0); stroke-opacity: 1; fill: rgb(0, 0, 0); fill-opacity: 0; stroke-width: 3px;"/><path data-index="13" fill-rule="evenodd" d="M1000,421.21L1585.71,421.21" clip-path="url('#clipc387b3xy')" style="opacity: 1; stroke: rgb(0, 0, 0); stroke-opacity: 1; fill: rgb(0, 0, 0); fill-opacity: 0; stroke-width: 3px;"/><path data-index="14" fill-rule="evenodd" d="M707.14,263.06L1000,263.06" clip-path="url('#clipc387b3xy')" style="opacity: 1; stroke: rgb(0, 0, 0); stroke-opacity: 1; fill: rgb(0, 0, 0); fill-opacity: 0; stroke-width: 3px;"/><path data-index="15" fill-rule="evenodd" d="M784.22,340.14L1000,340.14" clip-path="url('#clipc387b3xy')" style="opacity: 1; stroke: rgb(0, 0, 0); stroke-opacity: 1; fill: rgb(0, 0, 0); fill-opacity: 0; stroke-width: 3px;"/><path data-index="16" fill-rule="evenodd" d="M1077.08,287.43L1077.08,315.78" clip-path="url('#clipc387b3xy')" style="opacity: 1; stroke: rgb(0, 0, 0); stroke-opacity: 1; fill: rgb(0, 0, 0); fill-opacity: 0; stroke-width: 3px;"/><path data-index="17" fill-rule="evenodd" d="M1000,263.06L1000,210.35" clip-path="url('#clipc387b3xy')" style="opacity: 1; stroke: rgb(0, 0, 0); stroke-opacity: 1; fill: rgb(0, 0, 0); fill-opacity: 0; stroke-width: 3px;"/><path data-index="18" fill-rule="evenodd" d="M1000,392.86L1000,340.14" clip-path="url('#clipc387b3xy')" style="opacity: 1; stroke: rgb(0, 0, 0); stroke-opacity: 1; fill: rgb(0, 0, 0); fill-opacity: 0; stroke-width: 3px;"/><path data-index="19" fill-rule="evenodd" d="M1000,392.86L1585.71,392.86" clip-path="url('#clipc387b3xy')" style="opacity: 1; stroke: rgb(0, 0, 0); stroke-opacity: 1; fill: rgb(0, 0, 0); fill-opacity: 0; stroke-width: 3px;"/><path data-index="20" fill-rule="evenodd" d="M1077.08,315.78L1585.71,315.78" clip-path="url('#clipc387b3xy')" style="opacity: 1; stroke: rgb(0, 0, 0); stroke-opacity: 1; fill: rgb(0, 0, 0); fill-opacity: 0; stroke-width: 3px;"/><path data-index="21" fill-rule="evenodd" d="M1077.08,287.43L1585.71,287.43" clip-path="url('#clipc387b3xy')" style="opacity: 1; stroke: rgb(0, 0, 0); stroke-opacity: 1; fill: rgb(0, 0, 0); fill-opacity: 0; stroke-width: 3px;"/><path data-index="22" fill-rule="evenodd" d="M1000,210.35L1585.71,210.35" clip-path="url('#clipc387b3xy')" style="opacity: 1; stroke: rgb(0, 0, 0); stroke-opacity: 1; fill: rgb(0, 0, 0); fill-opacity: 0; stroke-width: 3px;"/><path data-index="23" fill-rule="evenodd" d="M414.29,407.03L745.68,407.03" clip-path="url('#clipc387b3xy')" style="opacity: 1; stroke: rgb(255, 0, 0); stroke-opacity: 1; fill: rgb(0, 0, 0); fill-opacity: 0; stroke-width: 3px;"/><path data-index="24" fill-rule="evenodd" d="M745.68,407.03L745.68,512.46" clip-path="url('#clipc387b3xy')" style="opacity: 1; stroke: rgb(255, 0, 0); stroke-opacity: 1; fill: rgb(0, 0, 0); fill-opacity: 0; stroke-width: 3px;"/><path data-index="25" fill-rule="evenodd" d="M745.68,512.46L1038.54,512.46" clip-path="url('#clipc387b3xy')" style="opacity: 1; stroke: rgb(255, 0, 0); stroke-opacity: 1; fill: rgb(0, 0, 0); fill-opacity: 0; stroke-width: 3px;"/><path data-index="28" fill-rule="evenodd" d="M1038.54,512.46L1038.54,565.1700000000001" clip-path="url('#clipc387b3xy')" style="opacity: 1; stroke: rgb(255, 0, 0); stroke-opacity: 1; fill: rgb(0, 0, 0); fill-opacity: 0; stroke-width: 3px;"/><path data-index="29" fill-rule="evenodd" d="M1038.54,565.1700000000001L1292.86,565.1700000000001" clip-path="url('#clipc387b3xy')" style="opacity: 1; stroke: rgb(255, 0, 0); stroke-opacity: 1; fill: rgb(0, 0, 0); fill-opacity: 0; stroke-width: 3px;"/><path data-index="30" fill-rule="evenodd" d="M1312.13,459.75L1312.13,472.59" clip-path="url('#clipc387b3xy')" style="opacity: 1; stroke: rgb(255, 0, 0); stroke-opacity: 1; fill: rgb(0, 0, 0); fill-opacity: 0; stroke-width: 3px;"/><path data-index="31" fill-rule="evenodd" d="M1312.13,472.59L1585.71,472.59" clip-path="url('#clipc387b3xy')" style="opacity: 1; stroke: rgb(255, 0, 0); stroke-opacity: 1; fill: rgb(0, 0, 0); fill-opacity: 0; stroke-width: 3px;"/><path data-index="32" fill-rule="evenodd" d="M1312.13,459.75L1312.13,446.9" clip-path="url('#clipc387b3xy')" style="opacity: 1; stroke: rgb(255, 0, 0); stroke-opacity: 1; fill: rgb(0, 0, 0); fill-opacity: 0; stroke-width: 3px;"/><path data-index="33" fill-rule="evenodd" d="M1312.13,446.9L1585.71,446.9" clip-path="url('#clipc387b3xy')" style="opacity: 1; stroke: rgb(255, 0, 0); stroke-opacity: 1; fill: rgb(0, 0, 0); fill-opacity: 0; stroke-width: 3px;"/><path data-index="34" fill-rule="evenodd" d="M1312.13,459.75L1312.13,472.59" clip-path="url('#clipc387b3xy')" style="opacity: 1; stroke: rgb(255, 0, 0); stroke-opacity: 1; fill: rgb(0, 0, 0); fill-opacity: 0; stroke-width: 3px;"/><path data-index="35" fill-rule="evenodd" d="M1312.13,472.59L1585.71,472.59" clip-path="url('#clipc387b3xy')" style="opacity: 1; stroke: rgb(255, 0, 0); stroke-opacity: 1; fill: rgb(0, 0, 0); fill-opacity: 0; stroke-width: 3px;"/><path data-index="36" fill-rule="evenodd" d="M1312.13,459.75L1312.13,446.9" clip-path="url('#clipc387b3xy')" style="opacity: 1; stroke: rgb(255, 0, 0); stroke-opacity: 1; fill: rgb(0, 0, 0); fill-opacity: 0; stroke-width: 3px;"/><path data-index="37" fill-rule="evenodd" d="M1312.13,446.9L1585.71,446.9" clip-path="url('#clipc387b3xy')" style="opacity: 1; stroke: rgb(255, 0, 0); stroke-opacity: 1; fill: rgb(0, 0, 0); fill-opacity: 0; stroke-width: 3px;"/><path data-index="39" fill-rule="evenodd" d="M1038.54,512.46L1038.54,459.75" clip-path="url('#clipc387b3xy')" style="opacity: 1; stroke: rgb(255, 0, 0); stroke-opacity: 1; fill: rgb(0, 0, 0); fill-opacity: 0; stroke-width: 3px;"/><path data-index="40" fill-rule="evenodd" d="M1038.54,459.75L1312.13,459.75" clip-path="url('#clipc387b3xy')" style="opacity: 1; stroke: rgb(255, 0, 0); stroke-opacity: 1; fill: rgb(0, 0, 0); fill-opacity: 0; stroke-width: 3px;"/><path data-index="41" fill-rule="evenodd" d="M745.68,407.03L745.68,301.6" clip-path="url('#clipc387b3xy')" style="opacity: 1; stroke: rgb(255, 0, 0); stroke-opacity: 1; fill: rgb(0, 0, 0); fill-opacity: 0; stroke-width: 3px;"/><path data-index="42" fill-rule="evenodd" d="M745.68,301.6L1038.54,301.6" clip-path="url('#clipc387b3xy')" style="opacity: 1; stroke: rgb(255, 0, 0); stroke-opacity: 1; fill: rgb(0, 0, 0); fill-opacity: 0; stroke-width: 3px;"/><path data-index="43" fill-rule="evenodd" d="M1312.13,354.32L1312.13,367.16" clip-path="url('#clipc387b3xy')" style="opacity: 1; stroke: rgb(255, 0, 0); stroke-opacity: 1; fill: rgb(0, 0, 0); fill-opacity: 0; stroke-width: 3px;"/><path data-index="44" fill-rule="evenodd" d="M1312.13,367.16L1585.71,367.16" clip-path="url('#clipc387b3xy')" style="opacity: 1; stroke: rgb(255, 0, 0); stroke-opacity: 1; fill: rgb(0, 0, 0); fill-opacity: 0; stroke-width: 3px;"/><path data-index="45" fill-rule="evenodd" d="M1312.13,354.32L1312.13,341.47" clip-path="url('#clipc387b3xy')" style="opacity: 1; stroke: rgb(255, 0, 0); stroke-opacity: 1; fill: rgb(0, 0, 0); fill-opacity: 0; stroke-width: 3px;"/><path data-index="46" fill-rule="evenodd" d="M1312.13,341.47L1585.71,341.47" clip-path="url('#clipc387b3xy')" style="opacity: 1; stroke: rgb(255, 0, 0); stroke-opacity: 1; fill: rgb(0, 0, 0); fill-opacity: 0; stroke-width: 3px;"/><path data-index="47" fill-rule="evenodd" d="M1312.13,354.32L1312.13,367.16" clip-path="url('#clipc387b3xy')" style="opacity: 1; stroke: rgb(255, 0, 0); stroke-opacity: 1; fill: rgb(0, 0, 0); fill-opacity: 0; stroke-width: 3px;"/><path data-index="48" fill-rule="evenodd" d="M1312.13,367.16L1585.71,367.16" clip-path="url('#clipc387b3xy')" style="opacity: 1; stroke: rgb(255, 0, 0); stroke-opacity: 1; fill: rgb(0, 0, 0); fill-opacity: 0; stroke-width: 3px;"/><path data-index="49" fill-rule="evenodd" d="M1312.13,354.32L1312.13,341.47" clip-path="url('#clipc387b3xy')" style="opacity: 1; stroke: rgb(255, 0, 0); stroke-opacity: 1; fill: rgb(0, 0, 0); fill-opacity: 0; stroke-width: 3px;"/><path data-index="50" fill-rule="evenodd" d="M1312.13,341.47L1585.71,341.47" clip-path="url('#clipc387b3xy')" style="opacity: 1; stroke: rgb(255, 0, 0); stroke-opacity: 1; fill: rgb(0, 0, 0); fill-opacity: 0; stroke-width: 3px;"/><path data-index="52" fill-rule="evenodd" d="M1038.54,301.6L1038.54,354.32" clip-path="url('#clipc387b3xy')" style="opacity: 1; stroke: rgb(255, 0, 0); stroke-opacity: 1; fill: rgb(0, 0, 0); fill-opacity: 0; stroke-width: 3px;"/><path data-index="53" fill-rule="evenodd" d="M1038.54,354.32L1312.13,354.32" clip-path="url('#clipc387b3xy')" style="opacity: 1; stroke: rgb(255, 0, 0); stroke-opacity: 1; fill: rgb(0, 0, 0); fill-opacity: 0; stroke-width: 3px;"/><path data-index="54" fill-rule="evenodd" d="M1312.13,248.89L1312.13,261.74" clip-path="url('#clipc387b3xy')" style="opacity: 1; stroke: rgb(255, 0, 0); stroke-opacity: 1; fill: rgb(0, 0, 0); fill-opacity: 0; stroke-width: 3px;"/><path data-index="55" fill-rule="evenodd" d="M1312.13,261.74L1585.71,261.74" clip-path="url('#clipc387b3xy')" style="opacity: 1; stroke: rgb(255, 0, 0); stroke-opacity: 1; fill: rgb(0, 0, 0); fill-opacity: 0; stroke-width: 3px;"/><path data-index="56" fill-rule="evenodd" d="M1312.13,248.89L1312.13,236.04" clip-path="url('#clipc387b3xy')" style="opacity: 1; stroke: rgb(255, 0, 0); stroke-opacity: 1; fill: rgb(0, 0, 0); fill-opacity: 0; stroke-width: 3px;"/><path data-index="57" fill-rule="evenodd" d="M1312.13,236.04L1585.71,236.04" clip-path="url('#clipc387b3xy')" style="opacity: 1; stroke: rgb(255, 0, 0); stroke-opacity: 1; fill: rgb(0, 0, 0); fill-opacity: 0; stroke-width: 3px;"/><path data-index="58" fill-rule="evenodd" d="M1312.13,248.89L1312.13,261.74" clip-path="url('#clipc387b3xy')" style="opacity: 1; stroke: rgb(255, 0, 0); stroke-opacity: 1; fill: rgb(0, 0, 0); fill-opacity: 0; stroke-width: 3px;"/><path data-index="59" fill-rule="evenodd" d="M1312.13,261.74L1585.71,261.74" clip-path="url('#clipc387b3xy')" style="opacity: 1; stroke: rgb(255, 0, 0); stroke-opacity: 1; fill: rgb(0, 0, 0); fill-opacity: 0; stroke-width: 3px;"/><path data-index="60" fill-rule="evenodd" d="M1312.13,248.89L1312.13,236.04" clip-path="url('#clipc387b3xy')" style="opacity: 1; stroke: rgb(255, 0, 0); stroke-opacity: 1; fill: rgb(0, 0, 0); fill-opacity: 0; stroke-width: 3px;"/><path data-index="61" fill-rule="evenodd" d="M1312.13,236.04L1585.71,236.04" clip-path="url('#clipc387b3xy')" style="opacity: 1; stroke: rgb(255, 0, 0); stroke-opacity: 1; fill: rgb(0, 0, 0); fill-opacity: 0; stroke-width: 3px;"/><path data-index="63" fill-rule="evenodd" d="M1038.54,301.6L1038.54,248.89" clip-path="url('#clipc387b3xy')" style="opacity: 1; stroke: rgb(255, 0, 0); stroke-opacity: 1; fill: rgb(0, 0, 0); fill-opacity: 0; stroke-width: 3px;"/><path data-index="64" fill-rule="evenodd" d="M1038.54,248.89L1312.13,248.89" clip-path="url('#clipc387b3xy')" style="opacity: 1; stroke: rgb(255, 0, 0); stroke-opacity: 1; fill: rgb(0, 0, 0); fill-opacity: 0; stroke-width: 3px;"/></g><g class="imagelayer"/></g><g class="gridlayer"><g class="x"/><g class="y"/></g><g class="zerolinelayer"/><path class="xlines-below"/><path class="ylines-below"/><g class="overlines-below"/><g class="xaxislayer-below"/><g class="yaxislayer-below"/><g class="overaxes-below"/><g class="plot" transform="translate(80, 100)" clip-path="url('#clipc387b3xyplot')"><g class="scatterlayer mlayer"><g class="trace scatter trace4cb445" style="stroke-miterlimit: 2; opacity: 1;"><g class="fills"/><g class="errorbars"/><g class="lines"/><g class="points"><path class="point" transform="translate(665.68,307.03)" d="M0.5,0A0.5,0.5 0 1,1 0,-0.5A0.5,0.5 0 0,1 0.5,0Z" style="opacity: 1; stroke-width: 1px; fill: rgb(100, 100, 100); fill-opacity: 1; stroke: rgb(68, 68, 68); stroke-opacity: 1;"/><path class="point" transform="translate(958.54,412.46)" d="M0.5,0A0.5,0.5 0 1,1 0,-0.5A0.5,0.5 0 0,1 0.5,0Z" style="opacity: 1; stroke-width: 1px; fill: rgb(100, 100, 100); fill-opacity: 1; stroke: rgb(68, 68, 68); stroke-opacity: 1;"/><path class="point" transform="translate(1212.86,465.17)" d="M0.5,0A0.5,0.5 0 1,1 0,-0.5A0.5,0.5 0 0,1 0.5,0Z" style="opacity: 1; stroke-width: 1px; fill: rgb(100, 100, 100); fill-opacity: 1; stroke: rgb(68, 68, 68); stroke-opacity: 1;"/><path class="point" transform="translate(1505.71,346.9)" d="M0.5,0A0.5,0.5 0 1,1 0,-0.5A0.5,0.5 0 0,1 0.5,0Z" style="opacity: 1; stroke-width: 1px; fill: rgb(100, 100, 100); fill-opacity: 1; stroke: rgb(68, 68, 68); stroke-opacity: 1;"/><path class="point" transform="translate(1505.71,372.59)" d="M0.5,0A0.5,0.5 0 1,1 0,-0.5A0.5,0.5 0 0,1 0.5,0Z" style="opacity: 1; stroke-width: 1px; fill: rgb(100, 100, 100); fill-opacity: 1; stroke: rgb(68, 68, 68); stroke-opacity: 1;"/><path class="point" transform="translate(1232.13,359.75)" d="M0.5,0A0.5,0.5 0 1,1 0,-0.5A0.5,0.5 0 0,1 0.5,0Z" style="opacity: 1; stroke-width: 1px; fill: rgb(100, 100, 100); fill-opacity: 1; stroke: rgb(68, 68, 68); stroke-opacity: 1;"/><path class="point" transform="translate(958.54,201.6)" d="M0.5,0A0.5,0.5 0 1,1 0,-0.5A0.5,0.5 0 0,1 0.5,0Z" style="opacity: 1; stroke-width: 1px; fill: rgb(100, 100, 100); fill-opacity: 1; stroke: rgb(68, 68, 68); stroke-opacity: 1;"/><path class="point" transform="translate(1505.71,241.47)" d="M0.5,0A0.5,0.5 0 1,1 0,-0.5A0.5,0.5 0 0,1 0.5,0Z" style="opacity: 1; stroke-width: 1px; fill: rgb(100, 100, 100); fill-opacity: 1; stroke: rgb(68, 68, 68); stroke-opacity: 1;"/><path class="point" transform="translate(1505.71,267.16)" d="M0.5,0A0.5,0.5 0 1,1 0,-0.5A0.5,0.5 0 0,1 0.5,0Z" style="opacity: 1; stroke-width: 1px; fill: rgb(100, 100, 100); fill-opacity: 1; stroke: rgb(68, 68, 68); stroke-opacity: 1;"/><path class="point" transform="translate(1232.13,254.32)" d="M0.5,0A0.5,0.5 0 1,1 0,-0.5A0.5,0.5 0 0,1 0.5,0Z" style="opacity: 1; stroke-width: 1px; fill: rgb(100, 100, 100); fill-opacity: 1; stroke: rgb(68, 68, 68); stroke-opacity: 1;"/><path class="point" transform="translate(1505.71,136.04)" d="M0.5,0A0.5,0.5 0 1,1 0,-0.5A0.5,0.5 0 0,1 0.5,0Z" style="opacity: 1; stroke-width: 1px; fill: rgb(100, 100, 100); fill-opacity: 1; stroke: rgb(68, 68, 68); stroke-opacity: 1;"/><path class="point" transform="translate(1505.71,161.74)" d="M0.5,0A0.5,0.5 0 1,1 0,-0.5A0.5,0.5 0 0,1 0.5,0Z" style="opacity: 1; stroke-width: 1px; fill: rgb(100, 100, 100); fill-opacity: 1; stroke: rgb(68, 68, 68); stroke-opacity: 1;"/><path class="point" transform="translate(1232.13,148.89)" d="M0.5,0A0.5,0.5 0 1,1 0,-0.5A0.5,0.5 0 0,1 0.5,0Z" style="opacity: 1; stroke-width: 1px; fill: rgb(100, 100, 100); fill-opacity: 1; stroke: rgb(68, 68, 68); stroke-opacity: 1;"/><path class="point" transform="translate(627.14,345.57)" d="M0.5,0A0.5,0.5 0 1,1 0,-0.5A0.5,0.5 0 0,1 0.5,0Z" style="opacity: 1; stroke-width: 1px; fill: rgb(100, 100, 100); fill-opacity: 1; stroke: rgb(68, 68, 68); stroke-opacity: 1;"/><path class="point" transform="translate(627.14,268.49)" d="M0.5,0A0.5,0.5 0 1,1 0,-0.5A0.5,0.5 0 0,1 0.5,0Z" style="opacity: 1; stroke-width: 1px; fill: rgb(100, 100, 100); fill-opacity: 1; stroke: rgb(68, 68, 68); stroke-opacity: 1;"/><path class="point" transform="translate(627.14,163.06)" d="M0.5,0A0.5,0.5 0 1,1 0,-0.5A0.5,0.5 0 0,1 0.5,0Z" style="opacity: 1; stroke-width: 1px; fill: rgb(100, 100, 100); fill-opacity: 1; stroke: rgb(68, 68, 68); stroke-opacity: 1;"/><path class="point" transform="translate(704.22,373.92)" d="M0.5,0A0.5,0.5 0 1,1 0,-0.5A0.5,0.5 0 0,1 0.5,0Z" style="opacity: 1; stroke-width: 1px; fill: rgb(100, 100, 100); fill-opacity: 1; stroke: rgb(68, 68, 68); stroke-opacity: 1;"/><path class="point" transform="translate(704.22,345.57)" d="M0.5,0A0.5,0.5 0 1,1 0,-0.5A0.5,0.5 0 0,1 0.5,0Z" style="opacity: 1; stroke-width: 1px; fill: rgb(100, 100, 100); fill-opacity: 1; stroke: rgb(68, 68, 68); stroke-opacity: 1;"/><path class="point" transform="translate(704.22,307.03)" d="M0.5,0A0.5,0.5 0 1,1 0,-0.5A0.5,0.5 0 0,1 0.5,0Z" style="opacity: 1; stroke-width: 1px; fill: rgb(100, 100, 100); fill-opacity: 1; stroke: rgb(68, 68, 68); stroke-opacity: 1;"/><path class="point" transform="translate(704.22,268.49)" d="M0.5,0A0.5,0.5 0 1,1 0,-0.5A0.5,0.5 0 0,1 0.5,0Z" style="opacity: 1; stroke-width: 1px; fill: rgb(100, 100, 100); fill-opacity: 1; stroke: rgb(68, 68, 68); stroke-opacity: 1;"/><path class="point" transform="translate(704.22,240.14)" d="M0.5,0A0.5,0.5 0 1,1 0,-0.5A0.5,0.5 0 0,1 0.5,0Z" style="opacity: 1; stroke-width: 1px; fill: rgb(100, 100, 100); fill-opacity: 1; stroke: rgb(68, 68, 68); stroke-opacity: 1;"/><path class="point" transform="translate(920,451)" d="M0.5,0A0.5,0.5 0 1,1 0,-0.5A0.5,0.5 0 0,1 0.5,0Z" style="opacity: 1; stroke-width: 1px; fill: rgb(100, 100, 100); fill-opacity: 1; stroke: rgb(68, 68, 68); stroke-opacity: 1;"/><path class="point" transform="translate(920,373.92)" d="M0.5,0A0.5,0.5 0 1,1 0,-0.5A0.5,0.5 0 0,1 0.5,0Z" style="opacity: 1; stroke-width: 1px; fill: rgb(100, 100, 100); fill-opacity: 1; stroke: rgb(68, 68, 68); stroke-opacity: 1;"/><path class="point" transform="translate(920,321.21)" d="M0.5,0A0.5,0.5 0 1,1 0,-0.5A0.5,0.5 0 0,1 0.5,0Z" style="opacity: 1; stroke-width: 1px; fill: rgb(100, 100, 100); fill-opacity: 1; stroke: rgb(68, 68, 68); stroke-opacity: 1;"/><path class="point" transform="translate(997.08,426.63)" d="M0.5,0A0.5,0.5 0 1,1 0,-0.5A0.5,0.5 0 0,1 0.5,0Z" style="opacity: 1; stroke-width: 1px; fill: rgb(100, 100, 100); fill-opacity: 1; stroke: rgb(68, 68, 68); stroke-opacity: 1;"/><path class="point" transform="translate(997.08,451)" d="M0.5,0A0.5,0.5 0 1,1 0,-0.5A0.5,0.5 0 0,1 0.5,0Z" style="opacity: 1; stroke-width: 1px; fill: rgb(100, 100, 100); fill-opacity: 1; stroke: rgb(68, 68, 68); stroke-opacity: 1;"/><path class="point" transform="translate(997.08,412.46)" d="M0.5,0A0.5,0.5 0 1,1 0,-0.5A0.5,0.5 0 0,1 0.5,0Z" style="opacity: 1; stroke-width: 1px; fill: rgb(100, 100, 100); fill-opacity: 1; stroke: rgb(68, 68, 68); stroke-opacity: 1;"/><path class="point" transform="translate(997.08,373.92)" d="M0.5,0A0.5,0.5 0 1,1 0,-0.5A0.5,0.5 0 0,1 0.5,0Z" style="opacity: 1; stroke-width: 1px; fill: rgb(100, 100, 100); fill-opacity: 1; stroke: rgb(68, 68, 68); stroke-opacity: 1;"/><path class="point" transform="translate(997.08,398.29)" d="M0.5,0A0.5,0.5 0 1,1 0,-0.5A0.5,0.5 0 0,1 0.5,0Z" style="opacity: 1; stroke-width: 1px; fill: rgb(100, 100, 100); fill-opacity: 1; stroke: rgb(68, 68, 68); stroke-opacity: 1;"/><path class="point" transform="translate(1505.71,426.63)" d="M0.5,0A0.5,0.5 0 1,1 0,-0.5A0.5,0.5 0 0,1 0.5,0Z" style="opacity: 1; stroke-width: 1px; fill: rgb(100, 100, 100); fill-opacity: 1; stroke: rgb(68, 68, 68); stroke-opacity: 1;"/><path class="point" transform="translate(1505.71,321.21)" d="M0.5,0A0.5,0.5 0 1,1 0,-0.5A0.5,0.5 0 0,1 0.5,0Z" style="opacity: 1; stroke-width: 1px; fill: rgb(100, 100, 100); fill-opacity: 1; stroke: rgb(68, 68, 68); stroke-opacity: 1;"/><path class="point" transform="translate(920,240.14)" d="M0.5,0A0.5,0.5 0 1,1 0,-0.5A0.5,0.5 0 0,1 0.5,0Z" style="opacity: 1; stroke-width: 1px; fill: rgb(100, 100, 100); fill-opacity: 1; stroke: rgb(68, 68, 68); stroke-opacity: 1;"/><path class="point" transform="translate(920,163.06)" d="M0.5,0A0.5,0.5 0 1,1 0,-0.5A0.5,0.5 0 0,1 0.5,0Z" style="opacity: 1; stroke-width: 1px; fill: rgb(100, 100, 100); fill-opacity: 1; stroke: rgb(68, 68, 68); stroke-opacity: 1;"/><path class="point" transform="translate(920,110.35)" d="M0.5,0A0.5,0.5 0 1,1 0,-0.5A0.5,0.5 0 0,1 0.5,0Z" style="opacity: 1; stroke-width: 1px; fill: rgb(100, 100, 100); fill-opacity: 1; stroke: rgb(68, 68, 68); stroke-opacity: 1;"/><path class="point" transform="translate(997.08,215.78)" d="M0.5,0A0.5,0.5 0 1,1 0,-0.5A0.5,0.5 0 0,1 0.5,0Z" style="opacity: 1; stroke-width: 1px; fill: rgb(100, 100, 100); fill-opacity: 1; stroke: rgb(68, 68, 68); stroke-opacity: 1;"/><path class="point" transform="translate(997.08,240.14)" d="M0.5,0A0.5,0.5 0 1,1 0,-0.5A0.5,0.5 0 0,1 0.5,0Z" style="opacity: 1; stroke-width: 1px; fill: rgb(100, 100, 100); fill-opacity: 1; stroke: rgb(68, 68, 68); stroke-opacity: 1;"/><path class="point" transform="translate(997.08,201.6)" d="M0.5,0A0.5,0.5 0 1,1 0,-0.5A0.5,0.5 0 0,1 0.5,0Z" style="opacity: 1; stroke-width: 1px; fill: rgb(100, 100, 100); fill-opacity: 1; stroke: rgb(68, 68, 68); stroke-opacity: 1;"/><path class="point" transform="translate(997.08,163.06)" d="M0.5,0A0.5,0.5 0 1,1 0,-0.5A0.5,0.5 0 0,1 0.5,0Z" style="opacity: 1; stroke-width: 1px; fill: rgb(100, 100, 100); fill-opacity: 1; stroke: rgb(68, 68, 68); stroke-opacity: 1;"/><path class="point" transform="translate(997.08,187.43)" d="M0.5,0A0.5,0.5 0 1,1 0,-0.5A0.5,0.5 0 0,1 0.5,0Z" style="opacity: 1; stroke-width: 1px; fill: rgb(100, 100, 100); fill-opacity: 1; stroke: rgb(68, 68, 68); stroke-opacity: 1;"/><path class="point" transform="translate(1505.71,215.78)" d="M0.5,0A0.5,0.5 0 1,1 0,-0.5A0.5,0.5 0 0,1 0.5,0Z" style="opacity: 1; stroke-width: 1px; fill: rgb(100, 100, 100); fill-opacity: 1; stroke: rgb(68, 68, 68); stroke-opacity: 1;"/><path class="point" transform="translate(1505.71,110.35)" d="M0.5,0A0.5,0.5 0 1,1 0,-0.5A0.5,0.5 0 0,1 0.5,0Z" style="opacity: 1; stroke-width: 1px; fill: rgb(100, 100, 100); fill-opacity: 1; stroke: rgb(68, 68, 68); stroke-opacity: 1;"/></g><g class="text"><g class="textpoint" transform="translate(1.625,3.5)"><text x="665.68" y="307.03" text-anchor="start" style="font-family: Balto; font-size: 14px; fill: rgb(0, 0, 0); fill-opacity: 1; white-space: pre;">		G1</text></g><g class="textpoint" transform="translate(1.625,3.5)"><text x="958.54" y="412.46" text-anchor="start" style="font-family: Balto; font-size: 14px; fill: rgb(0, 0, 0); fill-opacity: 1; white-space: pre;">		G2</text></g><g class="textpoint" transform="translate(1.625,3.5)"><text x="1212.86" y="465.17" text-anchor="start" style="font-family: Balto; font-size: 14px; fill: rgb(0, 0, 0); fill-opacity: 1; white-space: pre;">		loss0</text></g><g class="textpoint" transform="translate(1.625,3.5)"><text x="1505.71" y="346.9" text-anchor="start" style="font-family: Balto; font-size: 14px; fill: rgb(0, 0, 0); fill-opacity: 1; white-space: pre;">		gB_human</text></g><g class="textpoint" transform="translate(1.625,3.5)"><text x="1505.71" y="372.59" text-anchor="start" style="font-family: Balto; font-size: 14px; fill: rgb(0, 0, 0); fill-opacity: 1; white-space: pre;">		gA_human</text></g><g class="textpoint" transform="translate(1.625,3.5)"><text x="1232.13" y="359.75" text-anchor="start" style="font-family: Balto; font-size: 14px; fill: rgb(0, 0, 0); fill-opacity: 1; white-space: pre;">		G3</text></g><g class="textpoint" transform="translate(1.625,3.5)"><text x="958.54" y="201.6" text-anchor="start" style="font-family: Balto; font-size: 14px; fill: rgb(0, 0, 0); fill-opacity: 1; white-space: pre;">		G4</text></g><g class="textpoint" transform="translate(1.625,3.5)"><text x="1505.71" y="241.47" text-anchor="start" style="font-family: Balto; font-size: 14px; fill: rgb(0, 0, 0); fill-opacity: 1; white-space: pre;">		gB_mouse</text></g><g class="textpoint" transform="translate(1.625,3.5)"><text x="1505.71" y="267.16" text-anchor="start" style="font-family: Balto; font-size: 14px; fill: rgb(0, 0, 0); fill-opacity: 1; white-space: pre;">		gA_mouse</text></g><g class="textpoint" transform="translate(1.625,3.5)"><text x="1232.13" y="254.32" text-anchor="start" style="font-family: Balto; font-size: 14px; fill: rgb(0, 0, 0); fill-opacity: 1; white-space: pre;">		G5</text></g><g class="textpoint" transform="translate(1.625,3.5)"><text x="1505.71" y="136.04" text-anchor="start" style="font-family: Balto; font-size: 14px; fill: rgb(0, 0, 0); fill-opacity: 1; white-space: pre;">		gB_rabbit</text></g><g class="textpoint" transform="translate(1.625,3.5)"><text x="1505.71" y="161.74" text-anchor="start" style="font-family: Balto; font-size: 14px; fill: rgb(0, 0, 0); fill-opacity: 1; white-space: pre;">		gA_rabbit</text></g><g class="textpoint" transform="translate(1.625,3.5)"><text x="1232.13" y="148.89" text-anchor="start" style="font-family: Balto; font-size: 14px; fill: rgb(0, 0, 0); fill-opacity: 1; white-space: pre;">		G6</text></g><g class="textpoint" transform="translate(1.625,3.5)"><text x="627.14" y="345.57" text-anchor="start" style="font-family: Balto; font-size: 14px; fill: rgb(0, 0, 0); fill-opacity: 1; white-space: pre;">S1</text></g><g class="textpoint"/><g class="textpoint"/><g class="textpoint"/><g class="textpoint"/><g class="textpoint"/><g class="textpoint"/><g class="textpoint"/><g class="textpoint" transform="translate(1.625,3.5)"><text x="920" y="451" text-anchor="start" style="font-family: Balto; font-size: 14px; fill: rgb(0, 0, 0); fill-opacity: 1; white-space: pre;">S2</text></g><g class="textpoint"/><g class="textpoint"/><g class="textpoint"/><g class="textpoint"/><g class="textpoint"/><g class="textpoint"/><g class="textpoint"/><g class="textpoint" transform="translate(1.625,3.5)"><text x="1505.71" y="426.63" text-anchor="start" style="font-family: Balto; font-size: 14px; fill: rgb(0, 0, 0); fill-opacity: 1; white-space: pre;">GORILLA</text></g><g class="textpoint" transform="translate(1.625,3.5)"><text x="1505.71" y="321.21" text-anchor="start" style="font-family: Balto; font-size: 14px; fill: rgb(0, 0, 0); fill-opacity: 1; white-space: pre;">HUMAN</text></g><g class="textpoint" transform="translate(1.625,3.5)"><text x="920" y="240.14" text-anchor="start" style="font-family: Balto; font-size: 14px; fill: rgb(0, 0, 0); fill-opacity: 1; white-space: pre;">S3</text></g><g class="textpoint"/><g class="textpoint"/><g class="textpoint"/><g class="textpoint"/><g class="textpoint"/><g class="textpoint"/><g class="textpoint"/><g class="textpoint" transform="translate(1.625,3.5)"><text x="1505.71" y="215.78" text-anchor="start" style="font-family: Balto; font-size: 14px; fill: rgb(0, 0, 0); fill-opacity: 1; white-space: pre;">MOUSE</text></g><g class="textpoint" transform="translate(1.625,3.5)"><text x="1505.71" y="110.35" text-anchor="start" style="font-family: Balto; font-size: 14px; fill: rgb(0, 0, 0); fill-opacity: 1; white-space: pre;">RABBIT</text></g></g></g></g></g><g class="overplot"/><path class="xlines-above crisp" d="M80,920.5H1920" style="fill: none; stroke-width: 1px; stroke: rgb(255, 255, 255); stroke-opacity: 1;"/><path class="ylines-above crisp" d="M0,0" style="fill: none;"/><g class="overlines-above"/><g class="xaxislayer-above"/><g class="yaxislayer-above"/><g class="overaxes-above"/></g></g><g class="polarlayer"/><g class="ternarylayer"/><g class="geolayer"/><g class="funnelarealayer"/><g class="pielayer"/><g class="treemaplayer"/><g class="sunburstlayer"/><g class="glimages"/><defs id="topdefs-c387b3"><g class="clips"/></defs><g class="layer-above"><g class="imagelayer"/><g class="shapelayer"><path data-index="26" fill-rule="evenodd" d="M1284.07 573.96L1301.64 556.39Z" clip-path="url('#clipc387b3xy')" style="opacity: 1; stroke: rgb(255, 0, 0); stroke-opacity: 1; fill: rgb(255, 255, 255); fill-opacity: 1; stroke-width: 2px;"/><path data-index="27" fill-rule="evenodd" d="M1301.64 573.96L1284.07 556.39Z" clip-path="url('#clipc387b3xy')" style="opacity: 1; stroke: rgb(255, 0, 0); stroke-opacity: 1; fill: rgb(255, 255, 255); fill-opacity: 1; stroke-width: 2px;"/><path data-index="38" fill-rule="evenodd" d="M1306.27 465.6L1306.27 453.89L1317.98 453.89L1317.98 465.6Z" clip-path="url('#clipc387b3xy')" style="opacity: 1; stroke: rgb(255, 0, 0); stroke-opacity: 1; fill: rgb(255, 0, 0); fill-opacity: 1; stroke-width: 2px;"/><path data-index="51" fill-rule="evenodd" d="M1306.27 360.17L1306.27 348.46000000000004L1317.98 348.46000000000004L1317.98 360.17Z" clip-path="url('#clipc387b3xy')" style="opacity: 1; stroke: rgb(255, 0, 0); stroke-opacity: 1; fill: rgb(255, 0, 0); fill-opacity: 1; stroke-width: 2px;"/><path data-index="62" fill-rule="evenodd" d="M1306.27 254.75L1306.27 243.03L1317.98 243.03L1317.98 254.75Z" clip-path="url('#clipc387b3xy')" style="opacity: 1; stroke: rgb(255, 0, 0); stroke-opacity: 1; fill: rgb(255, 0, 0); fill-opacity: 1; stroke-width: 2px;"/></g></g><g class="infolayer"><g class="g-gtitle"><text class="gtitle" x="100" y="50" text-anchor="start" dy="0em" style="font-family: Balto; font-size: 14px; fill: rgb(42, 63, 95); opacity: 1; font-weight: normal; white-space: pre;">Gene-species reconciliation</text></g><g class="g-xtitle"><text class="xtitle" x="1000" y="945.5" text-anchor="middle" style="font-family: Arial, sans-serif; font-size: 15px; fill: rgb(0, 0, 0); opacity: 1; font-weight: normal; white-space: pre;">The Reconciliation cost is : 3 duplication(s) + 1 loss = 4 event(s)</text></g><g class="g-ytitle"/></g></svg>