<svg class="main-svg" xmlns="http://www.w3.org/2000/svg" xmlns:xlink="http://www.w3.org/1999/xlink" width="4000" height="2000" style="" viewBox="0 0 2000 1000"><rect x="0" y="0" width="2000" height="1000" style="fill: rgb(250, 250, 250); fill-opacity: 1;"/><defs id="defs-a6bcf3"><g class="clips"><clipPath id="clipa6bcf3xyplot" class="plotclip"><rect width="1840" height="820"/></clipPath><clipPath class="axesclip" id="clipa6bcf3x"><rect x="80" y="0" width="1840" height="1000"/></clipPath><clipPath class="axesclip" id="clipa6bcf3y"><rect x="0" y="100" width="2000" height="820"/></clipPath><clipPath class="axesclip" id="clipa6bcf3xy"><rect x="80" y="100" width="1840" height="820"/></clipPath></g><g class="gradients"/></defs><g class="bglayer"/><g class="layer-below"><g class="imagelayer"/><g class="shapelayer"/></g><g class="cartesianlayer"><g class="subplot xy"><g class="layer-subplot"><g class="shapelayer"><path data-index="0" fill-rule="evenodd" d="M414.29,580.29L609.52,580.29" clip-path="url('#clipa6bcf3xy')" style="opacity: 1; stroke: rgb(255, 0, 0); stroke-opacity: 1; fill: rgb(0, 0, 0); fill-opacity: 0; stroke-width: 3px;"/><path data-index="1" fill-rule="evenodd" d="M414.29,502.74L609.52,502.74" clip-path="url('#clipa6bcf3xy')" style="opacity: 1; stroke: rgb(255, 0, 0); stroke-opacity: 1; fill: rgb(0, 0, 0); fill-opacity: 0; stroke-width: 3px;"/><path data-index="2" fill-rule="evenodd" d="M609.52,738.43L609.52,580.29" clip-path="url('#clipa6bcf3xy')" style="opacity: 1; stroke: rgb(255, 0, 0); stroke-opacity: 1; fill: rgb(0, 0, 0); fill-opacity: 0; stroke-width: 3px;"/><path data-index="3" fill-rule="evenodd" d="M609.52,502.74L609.52,344.59000000000003" clip-path="url('#clipa6bcf3xy')" style="opacity: 1; stroke: rgb(255, 0, 0); stroke-opacity: 1; fill: rgb(0, 0, 0); fill-opacity: 0; stroke-width: 3px;"/><path data-index="4" fill-rule="evenodd" d="M687.07,660.88L687.07,422.14" clip-path="url('#clipa6bcf3xy')" style="opacity: 1; stroke: rgb(255, 0, 0); stroke-opacity: 1; fill: rgb(0, 0, 0); fill-opacity: 0; stroke-width: 3px;"/><path data-index="5" fill-rule="evenodd" d="M609.52,738.43L804.76,738.43" clip-path="url('#clipa6bcf3xy')" style="opacity: 1; stroke: rgb(255, 0, 0); stroke-opacity: 1; fill: rgb(0, 0, 0); fill-opacity: 0; stroke-width: 3px;"/><path data-index="6" fill-rule="evenodd" d="M687.07,660.88L804.76,660.88" clip-path="url('#clipa6bcf3xy')" style="opacity: 1; stroke: rgb(255, 0, 0); stroke-opacity: 1; fill: rgb(0, 0, 0); fill-opacity: 0; stroke-width: 3px;"/><path data-index="7" fill-rule="evenodd" d="M882.31,685.71L882.31,713.59" clip-path="url('#clipa6bcf3xy')" style="opacity: 1; stroke: rgb(255, 0, 0); stroke-opacity: 1; fill: rgb(0, 0, 0); fill-opacity: 0; stroke-width: 3px;"/><path data-index="8" fill-rule="evenodd" d="M804.76,660.88L804.76,608.1700000000001" clip-path="url('#clipa6bcf3xy')" style="opacity: 1; stroke: rgb(255, 0, 0); stroke-opacity: 1; fill: rgb(0, 0, 0); fill-opacity: 0; stroke-width: 3px;"/><path data-index="9" fill-rule="evenodd" d="M804.76,791.14L804.76,738.43" clip-path="url('#clipa6bcf3xy')" style="opacity: 1; stroke: rgb(255, 0, 0); stroke-opacity: 1; fill: rgb(0, 0, 0); fill-opacity: 0; stroke-width: 3px;"/><path data-index="10" fill-rule="evenodd" d="M804.76,791.14L1585.72,791.14" clip-path="url('#clipa6bcf3xy')" style="opacity: 1; stroke: rgb(255, 0, 0); stroke-opacity: 1; fill: rgb(0, 0, 0); fill-opacity: 0; stroke-width: 3px;"/><path data-index="11" fill-rule="evenodd" d="M882.31,713.59L1585.72,713.59" clip-path="url('#clipa6bcf3xy')" style="opacity: 1; stroke: rgb(255, 0, 0); stroke-opacity: 1; fill: rgb(0, 0, 0); fill-opacity: 0; stroke-width: 3px;"/><path data-index="12" fill-rule="evenodd" d="M882.31,685.71L1585.72,685.71" clip-path="url('#clipa6bcf3xy')" style="opacity: 1; stroke: rgb(255, 0, 0); stroke-opacity: 1; fill: rgb(0, 0, 0); fill-opacity: 0; stroke-width: 3px;"/><path data-index="13" fill-rule="evenodd" d="M804.76,608.1700000000001L1585.72,608.1700000000001" clip-path="url('#clipa6bcf3xy')" style="opacity: 1; stroke: rgb(255, 0, 0); stroke-opacity: 1; fill: rgb(0, 0, 0); fill-opacity: 0; stroke-width: 3px;"/><path data-index="14" fill-rule="evenodd" d="M609.52,344.59000000000003L804.76,344.59000000000003" clip-path="url('#clipa6bcf3xy')" style="opacity: 1; stroke: rgb(255, 0, 0); stroke-opacity: 1; fill: rgb(0, 0, 0); fill-opacity: 0; stroke-width: 3px;"/><path data-index="15" fill-rule="evenodd" d="M687.07,422.14L804.76,422.14" clip-path="url('#clipa6bcf3xy')" style="opacity: 1; stroke: rgb(255, 0, 0); stroke-opacity: 1; fill: rgb(0, 0, 0); fill-opacity: 0; stroke-width: 3px;"/><path data-index="16" fill-rule="evenodd" d="M882.31,316.71000000000004L882.31,450.02" clip-path="url('#clipa6bcf3xy')" style="opacity: 1; stroke: rgb(255, 0, 0); stroke-opacity: 1; fill: rgb(0, 0, 0); fill-opacity: 0; stroke-width: 3px;"/><path data-index="17" fill-rule="evenodd" d="M804.76,344.59000000000003L804.76,239.17" clip-path="url('#clipa6bcf3xy')" style="opacity: 1; stroke: rgb(255, 0, 0); stroke-opacity: 1; fill: rgb(0, 0, 0); fill-opacity: 0; stroke-width: 3px;"/><path data-index="18" fill-rule="evenodd" d="M804.76,527.5699999999999L804.76,422.14" clip-path="url('#clipa6bcf3xy')" style="opacity: 1; stroke: rgb(255, 0, 0); stroke-opacity: 1; fill: rgb(0, 0, 0); fill-opacity: 0; stroke-width: 3px;"/><path data-index="19" fill-rule="evenodd" d="M804.76,527.5699999999999L1000,527.5699999999999" clip-path="url('#clipa6bcf3xy')" style="opacity: 1; stroke: rgb(255, 0, 0); stroke-opacity: 1; fill: rgb(0, 0, 0); fill-opacity: 0; stroke-width: 3px;"/><path data-index="20" fill-rule="evenodd" d="M882.31,450.02L1000,450.02" clip-path="url('#clipa6bcf3xy')" style="opacity: 1; stroke: rgb(255, 0, 0); stroke-opacity: 1; fill: rgb(0, 0, 0); fill-opacity: 0; stroke-width: 3px;"/><path data-index="21" fill-rule="evenodd" d="M1077.55,474.86L1077.55,502.74" clip-path="url('#clipa6bcf3xy')" style="opacity: 1; stroke: rgb(255, 0, 0); stroke-opacity: 1; fill: rgb(0, 0, 0); fill-opacity: 0; stroke-width: 3px;"/><path data-index="22" fill-rule="evenodd" d="M1000,450.02L1000,397.31" clip-path="url('#clipa6bcf3xy')" style="opacity: 1; stroke: rgb(255, 0, 0); stroke-opacity: 1; fill: rgb(0, 0, 0); fill-opacity: 0; stroke-width: 3px;"/><path data-index="23" fill-rule="evenodd" d="M1000,580.29L1000,527.5699999999999" clip-path="url('#clipa6bcf3xy')" style="opacity: 1; stroke: rgb(255, 0, 0); stroke-opacity: 1; fill: rgb(0, 0, 0); fill-opacity: 0; stroke-width: 3px;"/><path data-index="24" fill-rule="evenodd" d="M1000,580.29L1585.72,580.29" clip-path="url('#clipa6bcf3xy')" style="opacity: 1; stroke: rgb(255, 0, 0); stroke-opacity: 1; fill: rgb(0, 0, 0); fill-opacity: 0; stroke-width: 3px;"/><path data-index="25" fill-rule="evenodd" d="M1077.55,502.74L1585.72,502.74" clip-path="url('#clipa6bcf3xy')" style="opacity: 1; stroke: rgb(255, 0, 0); stroke-opacity: 1; fill: rgb(0, 0, 0); fill-opacity: 0; stroke-width: 3px;"/><path data-index="26" fill-rule="evenodd" d="M1077.55,474.86L1585.72,474.86" clip-path="url('#clipa6bcf3xy')" style="opacity: 1; stroke: rgb(255, 0, 0); stroke-opacity: 1; fill: rgb(0, 0, 0); fill-opacity: 0; stroke-width: 3px;"/><path data-index="27" fill-rule="evenodd" d="M1000,397.31L1585.72,397.31" clip-path="url('#clipa6bcf3xy')" style="opacity: 1; stroke: rgb(255, 0, 0); stroke-opacity: 1; fill: rgb(0, 0, 0); fill-opacity: 0; stroke-width: 3px;"/><path data-index="28" fill-rule="evenodd" d="M804.76,239.17L1000,239.17" clip-path="url('#clipa6bcf3xy')" style="opacity: 1; stroke: rgb(255, 0, 0); stroke-opacity: 1; fill: rgb(0, 0, 0); fill-opacity: 0; stroke-width: 3px;"/><path data-index="29" fill-rule="evenodd" d="M882.31,316.71000000000004L1000,316.71000000000004" clip-path="url('#clipa6bcf3xy')" style="opacity: 1; stroke: rgb(255, 0, 0); stroke-opacity: 1; fill: rgb(0, 0, 0); fill-opacity: 0; stroke-width: 3px;"/><path data-index="30" fill-rule="evenodd" d="M1077.55,264L1077.55,291.88" clip-path="url('#clipa6bcf3xy')" style="opacity: 1; stroke: rgb(255, 0, 0); stroke-opacity: 1; fill: rgb(0, 0, 0); fill-opacity: 0; stroke-width: 3px;"/><path data-index="31" fill-rule="evenodd" d="M1000,239.17L1000,186.45" clip-path="url('#clipa6bcf3xy')" style="opacity: 1; stroke: rgb(255, 0, 0); stroke-opacity: 1; fill: rgb(0, 0, 0); fill-opacity: 0; stroke-width: 3px;"/><path data-index="32" fill-rule="evenodd" d="M1000,369.43L1000,316.71000000000004" clip-path="url('#clipa6bcf3xy')" style="opacity: 1; stroke: rgb(255, 0, 0); stroke-opacity: 1; fill: rgb(0, 0, 0); fill-opacity: 0; stroke-width: 3px;"/><path data-index="33" fill-rule="evenodd" d="M1000,369.43L1585.72,369.43" clip-path="url('#clipa6bcf3xy')" style="opacity: 1; stroke: rgb(255, 0, 0); stroke-opacity: 1; fill: rgb(0, 0, 0); fill-opacity: 0; stroke-width: 3px;"/><path data-index="34" fill-rule="evenodd" d="M1077.55,291.88L1585.72,291.88" clip-path="url('#clipa6bcf3xy')" style="opacity: 1; stroke: rgb(255, 0, 0); stroke-opacity: 1; fill: rgb(0, 0, 0); fill-opacity: 0; stroke-width: 3px;"/><path data-index="35" fill-rule="evenodd" d="M1077.55,264L1585.72,264" clip-path="url('#clipa6bcf3xy')" style="opacity: 1; stroke: rgb(255, 0, 0); stroke-opacity: 1; fill: rgb(0, 0, 0); fill-opacity: 0; stroke-width: 3px;"/><path data-index="36" fill-rule="evenodd" d="M1000,186.45L1585.72,186.45" clip-path="url('#clipa6bcf3xy')" style="opacity: 1; stroke: rgb(255, 0, 0); stroke-opacity: 1; fill: rgb(0, 0, 0); fill-opacity: 0; stroke-width: 3px;"/><path data-index="37" fill-rule="evenodd" d="M414.29,541.51L648.3,541.51" clip-path="url('#clipa6bcf3xy')" style="opacity: 1; stroke: rgb(0, 0, 255); stroke-opacity: 1; fill: rgb(0, 0, 0); fill-opacity: 0; stroke-width: 3px;"/><path data-index="39" fill-rule="evenodd" d="M648.3,541.51L648.3,699.65" clip-path="url('#clipa6bcf3xy')" style="opacity: 1; stroke: rgb(0, 0, 255); stroke-opacity: 1; fill: rgb(0, 0, 0); fill-opacity: 0; stroke-width: 3px;"/><path data-index="40" fill-rule="evenodd" d="M648.3,699.65L843.54,699.65" clip-path="url('#clipa6bcf3xy')" style="opacity: 1; stroke: rgb(0, 0, 255); stroke-opacity: 1; fill: rgb(0, 0, 0); fill-opacity: 0; stroke-width: 3px;"/><path data-index="43" fill-rule="evenodd" d="M843.54,699.65L843.54,752.37" clip-path="url('#clipa6bcf3xy')" style="opacity: 1; stroke: rgb(0, 0, 255); stroke-opacity: 1; fill: rgb(0, 0, 0); fill-opacity: 0; stroke-width: 3px;"/><path data-index="44" fill-rule="evenodd" d="M843.54,752.37L1195.24,752.37" clip-path="url('#clipa6bcf3xy')" style="opacity: 1; stroke: rgb(0, 0, 255); stroke-opacity: 1; fill: rgb(0, 0, 0); fill-opacity: 0; stroke-width: 3px;"/><path data-index="45" fill-rule="evenodd" d="M1214.63,646.94L1214.63,659.86" clip-path="url('#clipa6bcf3xy')" style="opacity: 1; stroke: rgb(0, 0, 255); stroke-opacity: 1; fill: rgb(0, 0, 0); fill-opacity: 0; stroke-width: 3px;"/><path data-index="46" fill-rule="evenodd" d="M1214.63,659.86L1585.72,659.86" clip-path="url('#clipa6bcf3xy')" style="opacity: 1; stroke: rgb(0, 0, 255); stroke-opacity: 1; fill: rgb(0, 0, 0); fill-opacity: 0; stroke-width: 3px;"/><path data-index="47" fill-rule="evenodd" d="M1214.63,646.94L1214.63,634.02" clip-path="url('#clipa6bcf3xy')" style="opacity: 1; stroke: rgb(0, 0, 255); stroke-opacity: 1; fill: rgb(0, 0, 0); fill-opacity: 0; stroke-width: 3px;"/><path data-index="48" fill-rule="evenodd" d="M1214.63,634.02L1585.72,634.02" clip-path="url('#clipa6bcf3xy')" style="opacity: 1; stroke: rgb(0, 0, 255); stroke-opacity: 1; fill: rgb(0, 0, 0); fill-opacity: 0; stroke-width: 3px;"/><path data-index="49" fill-rule="evenodd" d="M1214.63,646.94L1214.63,659.86" clip-path="url('#clipa6bcf3xy')" style="opacity: 1; stroke: rgb(0, 0, 255); stroke-opacity: 1; fill: rgb(0, 0, 0); fill-opacity: 0; stroke-width: 3px;"/><path data-index="50" fill-rule="evenodd" d="M1214.63,659.86L1585.72,659.86" clip-path="url('#clipa6bcf3xy')" style="opacity: 1; stroke: rgb(0, 0, 255); stroke-opacity: 1; fill: rgb(0, 0, 0); fill-opacity: 0; stroke-width: 3px;"/><path data-index="51" fill-rule="evenodd" d="M1214.63,646.94L1214.63,634.02" clip-path="url('#clipa6bcf3xy')" style="opacity: 1; stroke: rgb(0, 0, 255); stroke-opacity: 1; fill: rgb(0, 0, 0); fill-opacity: 0; stroke-width: 3px;"/><path data-index="52" fill-rule="evenodd" d="M1214.63,634.02L1585.72,634.02" clip-path="url('#clipa6bcf3xy')" style="opacity: 1; stroke: rgb(0, 0, 255); stroke-opacity: 1; fill: rgb(0, 0, 0); fill-opacity: 0; stroke-width: 3px;"/><path data-index="54" fill-rule="evenodd" d="M843.54,699.65L843.54,646.94" clip-path="url('#clipa6bcf3xy')" style="opacity: 1; stroke: rgb(0, 0, 255); stroke-opacity: 1; fill: rgb(0, 0, 0); fill-opacity: 0; stroke-width: 3px;"/><path data-index="55" fill-rule="evenodd" d="M843.54,646.94L1214.63,646.94" clip-path="url('#clipa6bcf3xy')" style="opacity: 1; stroke: rgb(0, 0, 255); stroke-opacity: 1; fill: rgb(0, 0, 0); fill-opacity: 0; stroke-width: 3px;"/><path data-index="56" fill-rule="evenodd" d="M648.3,541.51L648.3,383.37" clip-path="url('#clipa6bcf3xy')" style="opacity: 1; stroke: rgb(0, 0, 255); stroke-opacity: 1; fill: rgb(0, 0, 0); fill-opacity: 0; stroke-width: 3px;"/><path data-index="57" fill-rule="evenodd" d="M648.3,383.37L843.54,383.37" clip-path="url('#clipa6bcf3xy')" style="opacity: 1; stroke: rgb(0, 0, 255); stroke-opacity: 1; fill: rgb(0, 0, 0); fill-opacity: 0; stroke-width: 3px;"/><path data-index="59" fill-rule="evenodd" d="M843.54,383.37L843.54,488.8" clip-path="url('#clipa6bcf3xy')" style="opacity: 1; stroke: rgb(0, 0, 255); stroke-opacity: 1; fill: rgb(0, 0, 0); fill-opacity: 0; stroke-width: 3px;"/><path data-index="60" fill-rule="evenodd" d="M843.54,488.8L1038.78,488.8" clip-path="url('#clipa6bcf3xy')" style="opacity: 1; stroke: rgb(0, 0, 255); stroke-opacity: 1; fill: rgb(0, 0, 0); fill-opacity: 0; stroke-width: 3px;"/><path data-index="61" fill-rule="evenodd" d="M1038.78,488.8L1038.78,541.51" clip-path="url('#clipa6bcf3xy')" style="opacity: 1; stroke: rgb(0, 0, 255); stroke-opacity: 1; fill: rgb(0, 0, 0); fill-opacity: 0; stroke-width: 3px;"/><path data-index="62" fill-rule="evenodd" d="M1038.78,541.51L1585.72,541.51" clip-path="url('#clipa6bcf3xy')" style="opacity: 1; stroke: rgb(0, 0, 255); stroke-opacity: 1; fill: rgb(0, 0, 0); fill-opacity: 0; stroke-width: 3px;"/><path data-index="63" fill-rule="evenodd" d="M1312.25,436.08L1312.25,449.01" clip-path="url('#clipa6bcf3xy')" style="opacity: 1; stroke: rgb(0, 0, 255); stroke-opacity: 1; fill: rgb(0, 0, 0); fill-opacity: 0; stroke-width: 3px;"/><path data-index="64" fill-rule="evenodd" d="M1312.25,449.01L1585.72,449.01" clip-path="url('#clipa6bcf3xy')" style="opacity: 1; stroke: rgb(0, 0, 255); stroke-opacity: 1; fill: rgb(0, 0, 0); fill-opacity: 0; stroke-width: 3px;"/><path data-index="65" fill-rule="evenodd" d="M1312.25,436.08L1312.25,423.16" clip-path="url('#clipa6bcf3xy')" style="opacity: 1; stroke: rgb(0, 0, 255); stroke-opacity: 1; fill: rgb(0, 0, 0); fill-opacity: 0; stroke-width: 3px;"/><path data-index="66" fill-rule="evenodd" d="M1312.25,423.16L1585.72,423.16" clip-path="url('#clipa6bcf3xy')" style="opacity: 1; stroke: rgb(0, 0, 255); stroke-opacity: 1; fill: rgb(0, 0, 0); fill-opacity: 0; stroke-width: 3px;"/><path data-index="67" fill-rule="evenodd" d="M1312.25,436.08L1312.25,449.01" clip-path="url('#clipa6bcf3xy')" style="opacity: 1; stroke: rgb(0, 0, 255); stroke-opacity: 1; fill: rgb(0, 0, 0); fill-opacity: 0; stroke-width: 3px;"/><path data-index="68" fill-rule="evenodd" d="M1312.25,449.01L1585.72,449.01" clip-path="url('#clipa6bcf3xy')" style="opacity: 1; stroke: rgb(0, 0, 255); stroke-opacity: 1; fill: rgb(0, 0, 0); fill-opacity: 0; stroke-width: 3px;"/><path data-index="69" fill-rule="evenodd" d="M1312.25,436.08L1312.25,423.16" clip-path="url('#clipa6bcf3xy')" style="opacity: 1; stroke: rgb(0, 0, 255); stroke-opacity: 1; fill: rgb(0, 0, 0); fill-opacity: 0; stroke-width: 3px;"/><path data-index="70" fill-rule="evenodd" d="M1312.25,423.16L1585.72,423.16" clip-path="url('#clipa6bcf3xy')" style="opacity: 1; stroke: rgb(0, 0, 255); stroke-opacity: 1; fill: rgb(0, 0, 0); fill-opacity: 0; stroke-width: 3px;"/><path data-index="72" fill-rule="evenodd" d="M1038.78,488.8L1038.78,436.08" clip-path="url('#clipa6bcf3xy')" style="opacity: 1; stroke: rgb(0, 0, 255); stroke-opacity: 1; fill: rgb(0, 0, 0); fill-opacity: 0; stroke-width: 3px;"/><path data-index="73" fill-rule="evenodd" d="M1038.78,436.08L1312.25,436.08" clip-path="url('#clipa6bcf3xy')" style="opacity: 1; stroke: rgb(0, 0, 255); stroke-opacity: 1; fill: rgb(0, 0, 0); fill-opacity: 0; stroke-width: 3px;"/><path data-index="75" fill-rule="evenodd" d="M843.54,383.37L843.54,277.94" clip-path="url('#clipa6bcf3xy')" style="opacity: 1; stroke: rgb(0, 0, 255); stroke-opacity: 1; fill: rgb(0, 0, 0); fill-opacity: 0; stroke-width: 3px;"/><path data-index="76" fill-rule="evenodd" d="M843.54,277.94L1038.78,277.94" clip-path="url('#clipa6bcf3xy')" style="opacity: 1; stroke: rgb(0, 0, 255); stroke-opacity: 1; fill: rgb(0, 0, 0); fill-opacity: 0; stroke-width: 3px;"/><path data-index="77" fill-rule="evenodd" d="M1312.25,330.65L1312.25,343.58000000000004" clip-path="url('#clipa6bcf3xy')" style="opacity: 1; stroke: rgb(0, 0, 255); stroke-opacity: 1; fill: rgb(0, 0, 0); fill-opacity: 0; stroke-width: 3px;"/><path data-index="78" fill-rule="evenodd" d="M1312.25,343.58000000000004L1585.72,343.58000000000004" clip-path="url('#clipa6bcf3xy')" style="opacity: 1; stroke: rgb(0, 0, 255); stroke-opacity: 1; fill: rgb(0, 0, 0); fill-opacity: 0; stroke-width: 3px;"/><path data-index="79" fill-rule="evenodd" d="M1312.25,330.65L1312.25,317.73" clip-path="url('#clipa6bcf3xy')" style="opacity: 1; stroke: rgb(0, 0, 255); stroke-opacity: 1; fill: rgb(0, 0, 0); fill-opacity: 0; stroke-width: 3px;"/><path data-index="80" fill-rule="evenodd" d="M1312.25,317.73L1585.72,317.73" clip-path="url('#clipa6bcf3xy')" style="opacity: 1; stroke: rgb(0, 0, 255); stroke-opacity: 1; fill: rgb(0, 0, 0); fill-opacity: 0; stroke-width: 3px;"/><path data-index="81" fill-rule="evenodd" d="M1312.25,330.65L1312.25,343.58000000000004" clip-path="url('#clipa6bcf3xy')" style="opacity: 1; stroke: rgb(0, 0, 255); stroke-opacity: 1; fill: rgb(0, 0, 0); fill-opacity: 0; stroke-width: 3px;"/><path data-index="82" fill-rule="evenodd" d="M1312.25,343.58000000000004L1585.72,343.58000000000004" clip-path="url('#clipa6bcf3xy')" style="opacity: 1; stroke: rgb(0, 0, 255); stroke-opacity: 1; fill: rgb(0, 0, 0); fill-opacity: 0; stroke-width: 3px;"/><path data-index="83" fill-rule="evenodd" d="M1312.25,330.65L1312.25,317.73" clip-path="url('#clipa6bcf3xy')" style="opacity: 1; stroke: rgb(0, 0, 255); stroke-opacity: 1; fill: rgb(0, 0, 0); fill-opacity: 0; stroke-width: 3px;"/><path data-index="84" fill-rule="evenodd" d="M1312.25,317.73L1585.72,317.73" clip-path="url('#clipa6bcf3xy')" style="opacity: 1; stroke: rgb(0, 0, 255); stroke-opacity: 1; fill: rgb(0, 0, 0); fill-opacity: 0; stroke-width: 3px;"/><path data-index="86" fill-rule="evenodd" d="M1038.78,277.94L1038.78,330.65" clip-path="url('#clipa6bcf3xy')" style="opacity: 1; stroke: rgb(0, 0, 255); stroke-opacity: 1; fill: rgb(0, 0, 0); fill-opacity: 0; stroke-width: 3px;"/><path data-index="87" fill-rule="evenodd" d="M1038.78,330.65L1312.25,330.65" clip-path="url('#clipa6bcf3xy')" style="opacity: 1; stroke: rgb(0, 0, 255); stroke-opacity: 1; fill: rgb(0, 0, 0); fill-opacity: 0; stroke-width: 3px;"/><path data-index="88" fill-rule="evenodd" d="M1312.25,225.23000000000002L1312.25,238.15" clip-path="url('#clipa6bcf3xy')" style="opacity: 1; stroke: rgb(0, 0, 255); stroke-opacity: 1; fill: rgb(0, 0, 0); fill-opacity: 0; stroke-width: 3px;"/><path data-index="89" fill-rule="evenodd" d="M1312.25,238.15L1585.72,238.15" clip-path="url('#clipa6bcf3xy')" style="opacity: 1; stroke: rgb(0, 0, 255); stroke-opacity: 1; fill: rgb(0, 0, 0); fill-opacity: 0; stroke-width: 3px;"/><path data-index="90" fill-rule="evenodd" d="M1312.25,225.23000000000002L1312.25,212.3" clip-path="url('#clipa6bcf3xy')" style="opacity: 1; stroke: rgb(0, 0, 255); stroke-opacity: 1; fill: rgb(0, 0, 0); fill-opacity: 0; stroke-width: 3px;"/><path data-index="91" fill-rule="evenodd" d="M1312.25,212.3L1585.72,212.3" clip-path="url('#clipa6bcf3xy')" style="opacity: 1; stroke: rgb(0, 0, 255); stroke-opacity: 1; fill: rgb(0, 0, 0); fill-opacity: 0; stroke-width: 3px;"/><path data-index="92" fill-rule="evenodd" d="M1312.25,225.23000000000002L1312.25,238.15" clip-path="url('#clipa6bcf3xy')" style="opacity: 1; stroke: rgb(0, 0, 255); stroke-opacity: 1; fill: rgb(0, 0, 0); fill-opacity: 0; stroke-width: 3px;"/><path data-index="93" fill-rule="evenodd" d="M1312.25,238.15L1585.72,238.15" clip-path="url('#clipa6bcf3xy')" style="opacity: 1; stroke: rgb(0, 0, 255); stroke-opacity: 1; fill: rgb(0, 0, 0); fill-opacity: 0; stroke-width: 3px;"/><path data-index="94" fill-rule="evenodd" d="M1312.25,225.23000000000002L1312.25,212.3" clip-path="url('#clipa6bcf3xy')" style="opacity: 1; stroke: rgb(0, 0, 255); stroke-opacity: 1; fill: rgb(0, 0, 0); fill-opacity: 0; stroke-width: 3px;"/><path data-index="95" fill-rule="evenodd" d="M1312.25,212.3L1585.72,212.3" clip-path="url('#clipa6bcf3xy')" style="opacity: 1; stroke: rgb(0, 0, 255); stroke-opacity: 1; fill: rgb(0, 0, 0); fill-opacity: 0; stroke-width: 3px;"/><path data-index="97" fill-rule="evenodd" d="M1038.78,277.94L1038.78,225.23000000000002" clip-path="url('#clipa6bcf3xy')" style="opacity: 1; stroke: rgb(0, 0, 255); stroke-opacity: 1; fill: rgb(0, 0, 0); fill-opacity: 0; stroke-width: 3px;"/><path data-index="98" fill-rule="evenodd" d="M1038.78,225.23000000000002L1312.25,225.23000000000002" clip-path="url('#clipa6bcf3xy')" style="opacity: 1; stroke: rgb(0, 0, 255); stroke-opacity: 1; fill: rgb(0, 0, 0); fill-opacity: 0; stroke-width: 3px;"/></g><g class="imagelayer"/></g><g class="gridlayer"><g class="x"/><g class="y"/></g><g class="zerolinelayer"/><path class="xlines-below"/><path class="ylines-below"/><g class="overlines-below"/><g class="xaxislayer-below"/><g class="yaxislayer-below"/><g class="overaxes-below"/><g class="plot" transform="translate(80, 100)" clip-path="url('#clipa6bcf3xyplot')"><g class="scatterlayer mlayer"><g class="trace scatter trace668b28" style="stroke-miterlimit: 2; opacity: 1;"><g class="fills"/><g class="errorbars"/><g class="lines"/><g class="points"><path class="point" transform="translate(568.3,441.51)" d="M0.5,0A0.5,0.5 0 1,1 0,-0.5A0.5,0.5 0 0,1 0.5,0Z" style="opacity: 1; stroke-width: 1px; fill: rgb(100, 100, 100); fill-opacity: 1; stroke: rgb(68, 68, 68); stroke-opacity: 1;"/><path class="point" transform="translate(763.54,599.65)" d="M0.5,0A0.5,0.5 0 1,1 0,-0.5A0.5,0.5 0 0,1 0.5,0Z" style="opacity: 1; stroke-width: 1px; fill: rgb(100, 100, 100); fill-opacity: 1; stroke: rgb(68, 68, 68); stroke-opacity: 1;"/><path class="point" transform="translate(1115.24,652.37)" d="M0.5,0A0.5,0.5 0 1,1 0,-0.5A0.5,0.5 0 0,1 0.5,0Z" style="opacity: 1; stroke-width: 1px; fill: rgb(100, 100, 100); fill-opacity: 1; stroke: rgb(68, 68, 68); stroke-opacity: 1;"/><path class="point" transform="translate(1505.72,534.02)" d="M0.5,0A0.5,0.5 0 1,1 0,-0.5A0.5,0.5 0 0,1 0.5,0Z" style="opacity: 1; stroke-width: 1px; fill: rgb(100, 100, 100); fill-opacity: 1; stroke: rgb(68, 68, 68); stroke-opacity: 1;"/><path class="point" transform="translate(1505.72,559.86)" d="M0.5,0A0.5,0.5 0 1,1 0,-0.5A0.5,0.5 0 0,1 0.5,0Z" style="opacity: 1; stroke-width: 1px; fill: rgb(100, 100, 100); fill-opacity: 1; stroke: rgb(68, 68, 68); stroke-opacity: 1;"/><path class="point" transform="translate(1134.63,546.94)" d="M0.5,0A0.5,0.5 0 1,1 0,-0.5A0.5,0.5 0 0,1 0.5,0Z" style="opacity: 1; stroke-width: 1px; fill: rgb(100, 100, 100); fill-opacity: 1; stroke: rgb(68, 68, 68); stroke-opacity: 1;"/><path class="point" transform="translate(763.54,283.37)" d="M0.5,0A0.5,0.5 0 1,1 0,-0.5A0.5,0.5 0 0,1 0.5,0Z" style="opacity: 1; stroke-width: 1px; fill: rgb(100, 100, 100); fill-opacity: 1; stroke: rgb(68, 68, 68); stroke-opacity: 1;"/><path class="point" transform="translate(958.78,388.8)" d="M0.5,0A0.5,0.5 0 1,1 0,-0.5A0.5,0.5 0 0,1 0.5,0Z" style="opacity: 1; stroke-width: 1px; fill: rgb(100, 100, 100); fill-opacity: 1; stroke: rgb(68, 68, 68); stroke-opacity: 1;"/><path class="point" transform="translate(1505.72,441.51)" d="M0.5,0A0.5,0.5 0 1,1 0,-0.5A0.5,0.5 0 0,1 0.5,0Z" style="opacity: 1; stroke-width: 1px; fill: rgb(100, 100, 100); fill-opacity: 1; stroke: rgb(68, 68, 68); stroke-opacity: 1;"/><path class="point" transform="translate(1505.72,323.16)" d="M0.5,0A0.5,0.5 0 1,1 0,-0.5A0.5,0.5 0 0,1 0.5,0Z" style="opacity: 1; stroke-width: 1px; fill: rgb(100, 100, 100); fill-opacity: 1; stroke: rgb(68, 68, 68); stroke-opacity: 1;"/><path class="point" transform="translate(1505.72,349.01)" d="M0.5,0A0.5,0.5 0 1,1 0,-0.5A0.5,0.5 0 0,1 0.5,0Z" style="opacity: 1; stroke-width: 1px; fill: rgb(100, 100, 100); fill-opacity: 1; stroke: rgb(68, 68, 68); stroke-opacity: 1;"/><path class="point" transform="translate(1232.25,336.08)" d="M0.5,0A0.5,0.5 0 1,1 0,-0.5A0.5,0.5 0 0,1 0.5,0Z" style="opacity: 1; stroke-width: 1px; fill: rgb(100, 100, 100); fill-opacity: 1; stroke: rgb(68, 68, 68); stroke-opacity: 1;"/><path class="point" transform="translate(958.78,177.94)" d="M0.5,0A0.5,0.5 0 1,1 0,-0.5A0.5,0.5 0 0,1 0.5,0Z" style="opacity: 1; stroke-width: 1px; fill: rgb(100, 100, 100); fill-opacity: 1; stroke: rgb(68, 68, 68); stroke-opacity: 1;"/><path class="point" transform="translate(1505.72,217.73)" d="M0.5,0A0.5,0.5 0 1,1 0,-0.5A0.5,0.5 0 0,1 0.5,0Z" style="opacity: 1; stroke-width: 1px; fill: rgb(100, 100, 100); fill-opacity: 1; stroke: rgb(68, 68, 68); stroke-opacity: 1;"/><path class="point" transform="translate(1505.72,243.58)" d="M0.5,0A0.5,0.5 0 1,1 0,-0.5A0.5,0.5 0 0,1 0.5,0Z" style="opacity: 1; stroke-width: 1px; fill: rgb(100, 100, 100); fill-opacity: 1; stroke: rgb(68, 68, 68); stroke-opacity: 1;"/><path class="point" transform="translate(1232.25,230.65)" d="M0.5,0A0.5,0.5 0 1,1 0,-0.5A0.5,0.5 0 0,1 0.5,0Z" style="opacity: 1; stroke-width: 1px; fill: rgb(100, 100, 100); fill-opacity: 1; stroke: rgb(68, 68, 68); stroke-opacity: 1;"/><path class="point" transform="translate(1505.72,112.3)" d="M0.5,0A0.5,0.5 0 1,1 0,-0.5A0.5,0.5 0 0,1 0.5,0Z" style="opacity: 1; stroke-width: 1px; fill: rgb(100, 100, 100); fill-opacity: 1; stroke: rgb(68, 68, 68); stroke-opacity: 1;"/><path class="point" transform="translate(1505.72,138.15)" d="M0.5,0A0.5,0.5 0 1,1 0,-0.5A0.5,0.5 0 0,1 0.5,0Z" style="opacity: 1; stroke-width: 1px; fill: rgb(100, 100, 100); fill-opacity: 1; stroke: rgb(68, 68, 68); stroke-opacity: 1;"/><path class="point" transform="translate(1232.25,125.23)" d="M0.5,0A0.5,0.5 0 1,1 0,-0.5A0.5,0.5 0 0,1 0.5,0Z" style="opacity: 1; stroke-width: 1px; fill: rgb(100, 100, 100); fill-opacity: 1; stroke: rgb(68, 68, 68); stroke-opacity: 1;"/><path class="point" transform="translate(529.52,480.29)" d="M0.5,0A0.5,0.5 0 1,1 0,-0.5A0.5,0.5 0 0,1 0.5,0Z" style="opacity: 1; stroke-width: 1px; fill: rgb(100, 100, 100); fill-opacity: 1; stroke: rgb(68, 68, 68); stroke-opacity: 1;"/><path class="point" transform="translate(529.52,402.74)" d="M0.5,0A0.5,0.5 0 1,1 0,-0.5A0.5,0.5 0 0,1 0.5,0Z" style="opacity: 1; stroke-width: 1px; fill: rgb(100, 100, 100); fill-opacity: 1; stroke: rgb(68, 68, 68); stroke-opacity: 1;"/><path class="point" transform="translate(529.52,244.59)" d="M0.5,0A0.5,0.5 0 1,1 0,-0.5A0.5,0.5 0 0,1 0.5,0Z" style="opacity: 1; stroke-width: 1px; fill: rgb(100, 100, 100); fill-opacity: 1; stroke: rgb(68, 68, 68); stroke-opacity: 1;"/><path class="point" transform="translate(607.07,560.88)" d="M0.5,0A0.5,0.5 0 1,1 0,-0.5A0.5,0.5 0 0,1 0.5,0Z" style="opacity: 1; stroke-width: 1px; fill: rgb(100, 100, 100); fill-opacity: 1; stroke: rgb(68, 68, 68); stroke-opacity: 1;"/><path class="point" transform="translate(607.07,480.29)" d="M0.5,0A0.5,0.5 0 1,1 0,-0.5A0.5,0.5 0 0,1 0.5,0Z" style="opacity: 1; stroke-width: 1px; fill: rgb(100, 100, 100); fill-opacity: 1; stroke: rgb(68, 68, 68); stroke-opacity: 1;"/><path class="point" transform="translate(607.07,441.51)" d="M0.5,0A0.5,0.5 0 1,1 0,-0.5A0.5,0.5 0 0,1 0.5,0Z" style="opacity: 1; stroke-width: 1px; fill: rgb(100, 100, 100); fill-opacity: 1; stroke: rgb(68, 68, 68); stroke-opacity: 1;"/><path class="point" transform="translate(607.07,402.74)" d="M0.5,0A0.5,0.5 0 1,1 0,-0.5A0.5,0.5 0 0,1 0.5,0Z" style="opacity: 1; stroke-width: 1px; fill: rgb(100, 100, 100); fill-opacity: 1; stroke: rgb(68, 68, 68); stroke-opacity: 1;"/><path class="point" transform="translate(607.07,322.14)" d="M0.5,0A0.5,0.5 0 1,1 0,-0.5A0.5,0.5 0 0,1 0.5,0Z" style="opacity: 1; stroke-width: 1px; fill: rgb(100, 100, 100); fill-opacity: 1; stroke: rgb(68, 68, 68); stroke-opacity: 1;"/><path class="point" transform="translate(724.76,638.43)" d="M0.5,0A0.5,0.5 0 1,1 0,-0.5A0.5,0.5 0 0,1 0.5,0Z" style="opacity: 1; stroke-width: 1px; fill: rgb(100, 100, 100); fill-opacity: 1; stroke: rgb(68, 68, 68); stroke-opacity: 1;"/><path class="point" transform="translate(724.76,560.88)" d="M0.5,0A0.5,0.5 0 1,1 0,-0.5A0.5,0.5 0 0,1 0.5,0Z" style="opacity: 1; stroke-width: 1px; fill: rgb(100, 100, 100); fill-opacity: 1; stroke: rgb(68, 68, 68); stroke-opacity: 1;"/><path class="point" transform="translate(724.76,508.17)" d="M0.5,0A0.5,0.5 0 1,1 0,-0.5A0.5,0.5 0 0,1 0.5,0Z" style="opacity: 1; stroke-width: 1px; fill: rgb(100, 100, 100); fill-opacity: 1; stroke: rgb(68, 68, 68); stroke-opacity: 1;"/><path class="point" transform="translate(802.31,613.59)" d="M0.5,0A0.5,0.5 0 1,1 0,-0.5A0.5,0.5 0 0,1 0.5,0Z" style="opacity: 1; stroke-width: 1px; fill: rgb(100, 100, 100); fill-opacity: 1; stroke: rgb(68, 68, 68); stroke-opacity: 1;"/><path class="point" transform="translate(802.31,638.43)" d="M0.5,0A0.5,0.5 0 1,1 0,-0.5A0.5,0.5 0 0,1 0.5,0Z" style="opacity: 1; stroke-width: 1px; fill: rgb(100, 100, 100); fill-opacity: 1; stroke: rgb(68, 68, 68); stroke-opacity: 1;"/><path class="point" transform="translate(802.31,599.65)" d="M0.5,0A0.5,0.5 0 1,1 0,-0.5A0.5,0.5 0 0,1 0.5,0Z" style="opacity: 1; stroke-width: 1px; fill: rgb(100, 100, 100); fill-opacity: 1; stroke: rgb(68, 68, 68); stroke-opacity: 1;"/><path class="point" transform="translate(802.31,560.88)" d="M0.5,0A0.5,0.5 0 1,1 0,-0.5A0.5,0.5 0 0,1 0.5,0Z" style="opacity: 1; stroke-width: 1px; fill: rgb(100, 100, 100); fill-opacity: 1; stroke: rgb(68, 68, 68); stroke-opacity: 1;"/><path class="point" transform="translate(802.31,585.71)" d="M0.5,0A0.5,0.5 0 1,1 0,-0.5A0.5,0.5 0 0,1 0.5,0Z" style="opacity: 1; stroke-width: 1px; fill: rgb(100, 100, 100); fill-opacity: 1; stroke: rgb(68, 68, 68); stroke-opacity: 1;"/><path class="point" transform="translate(1505.72,613.59)" d="M0.5,0A0.5,0.5 0 1,1 0,-0.5A0.5,0.5 0 0,1 0.5,0Z" style="opacity: 1; stroke-width: 1px; fill: rgb(100, 100, 100); fill-opacity: 1; stroke: rgb(68, 68, 68); stroke-opacity: 1;"/><path class="point" transform="translate(1505.72,508.17)" d="M0.5,0A0.5,0.5 0 1,1 0,-0.5A0.5,0.5 0 0,1 0.5,0Z" style="opacity: 1; stroke-width: 1px; fill: rgb(100, 100, 100); fill-opacity: 1; stroke: rgb(68, 68, 68); stroke-opacity: 1;"/><path class="point" transform="translate(724.76,322.14)" d="M0.5,0A0.5,0.5 0 1,1 0,-0.5A0.5,0.5 0 0,1 0.5,0Z" style="opacity: 1; stroke-width: 1px; fill: rgb(100, 100, 100); fill-opacity: 1; stroke: rgb(68, 68, 68); stroke-opacity: 1;"/><path class="point" transform="translate(724.76,244.59)" d="M0.5,0A0.5,0.5 0 1,1 0,-0.5A0.5,0.5 0 0,1 0.5,0Z" style="opacity: 1; stroke-width: 1px; fill: rgb(100, 100, 100); fill-opacity: 1; stroke: rgb(68, 68, 68); stroke-opacity: 1;"/><path class="point" transform="translate(724.76,139.17)" d="M0.5,0A0.5,0.5 0 1,1 0,-0.5A0.5,0.5 0 0,1 0.5,0Z" style="opacity: 1; stroke-width: 1px; fill: rgb(100, 100, 100); fill-opacity: 1; stroke: rgb(68, 68, 68); stroke-opacity: 1;"/><path class="point" transform="translate(802.31,350.02)" d="M0.5,0A0.5,0.5 0 1,1 0,-0.5A0.5,0.5 0 0,1 0.5,0Z" style="opacity: 1; stroke-width: 1px; fill: rgb(100, 100, 100); fill-opacity: 1; stroke: rgb(68, 68, 68); stroke-opacity: 1;"/><path class="point" transform="translate(802.31,322.14)" d="M0.5,0A0.5,0.5 0 1,1 0,-0.5A0.5,0.5 0 0,1 0.5,0Z" style="opacity: 1; stroke-width: 1px; fill: rgb(100, 100, 100); fill-opacity: 1; stroke: rgb(68, 68, 68); stroke-opacity: 1;"/><path class="point" transform="translate(802.31,283.37)" d="M0.5,0A0.5,0.5 0 1,1 0,-0.5A0.5,0.5 0 0,1 0.5,0Z" style="opacity: 1; stroke-width: 1px; fill: rgb(100, 100, 100); fill-opacity: 1; stroke: rgb(68, 68, 68); stroke-opacity: 1;"/><path class="point" transform="translate(802.31,244.59)" d="M0.5,0A0.5,0.5 0 1,1 0,-0.5A0.5,0.5 0 0,1 0.5,0Z" style="opacity: 1; stroke-width: 1px; fill: rgb(100, 100, 100); fill-opacity: 1; stroke: rgb(68, 68, 68); stroke-opacity: 1;"/><path class="point" transform="translate(802.31,216.71)" d="M0.5,0A0.5,0.5 0 1,1 0,-0.5A0.5,0.5 0 0,1 0.5,0Z" style="opacity: 1; stroke-width: 1px; fill: rgb(100, 100, 100); fill-opacity: 1; stroke: rgb(68, 68, 68); stroke-opacity: 1;"/><path class="point" transform="translate(920,427.57)" d="M0.5,0A0.5,0.5 0 1,1 0,-0.5A0.5,0.5 0 0,1 0.5,0Z" style="opacity: 1; stroke-width: 1px; fill: rgb(100, 100, 100); fill-opacity: 1; stroke: rgb(68, 68, 68); stroke-opacity: 1;"/><path class="point" transform="translate(920,350.02)" d="M0.5,0A0.5,0.5 0 1,1 0,-0.5A0.5,0.5 0 0,1 0.5,0Z" style="opacity: 1; stroke-width: 1px; fill: rgb(100, 100, 100); fill-opacity: 1; stroke: rgb(68, 68, 68); stroke-opacity: 1;"/><path class="point" transform="translate(920,297.31)" d="M0.5,0A0.5,0.5 0 1,1 0,-0.5A0.5,0.5 0 0,1 0.5,0Z" style="opacity: 1; stroke-width: 1px; fill: rgb(100, 100, 100); fill-opacity: 1; stroke: rgb(68, 68, 68); stroke-opacity: 1;"/><path class="point" transform="translate(997.55,402.74)" d="M0.5,0A0.5,0.5 0 1,1 0,-0.5A0.5,0.5 0 0,1 0.5,0Z" style="opacity: 1; stroke-width: 1px; fill: rgb(100, 100, 100); fill-opacity: 1; stroke: rgb(68, 68, 68); stroke-opacity: 1;"/><path class="point" transform="translate(997.55,427.57)" d="M0.5,0A0.5,0.5 0 1,1 0,-0.5A0.5,0.5 0 0,1 0.5,0Z" style="opacity: 1; stroke-width: 1px; fill: rgb(100, 100, 100); fill-opacity: 1; stroke: rgb(68, 68, 68); stroke-opacity: 1;"/><path class="point" transform="translate(997.55,388.8)" d="M0.5,0A0.5,0.5 0 1,1 0,-0.5A0.5,0.5 0 0,1 0.5,0Z" style="opacity: 1; stroke-width: 1px; fill: rgb(100, 100, 100); fill-opacity: 1; stroke: rgb(68, 68, 68); stroke-opacity: 1;"/><path class="point" transform="translate(997.55,350.02)" d="M0.5,0A0.5,0.5 0 1,1 0,-0.5A0.5,0.5 0 0,1 0.5,0Z" style="opacity: 1; stroke-width: 1px; fill: rgb(100, 100, 100); fill-opacity: 1; stroke: rgb(68, 68, 68); stroke-opacity: 1;"/><path class="point" transform="translate(997.55,374.86)" d="M0.5,0A0.5,0.5 0 1,1 0,-0.5A0.5,0.5 0 0,1 0.5,0Z" style="opacity: 1; stroke-width: 1px; fill: rgb(100, 100, 100); fill-opacity: 1; stroke: rgb(68, 68, 68); stroke-opacity: 1;"/><path class="point" transform="translate(1505.72,402.74)" d="M0.5,0A0.5,0.5 0 1,1 0,-0.5A0.5,0.5 0 0,1 0.5,0Z" style="opacity: 1; stroke-width: 1px; fill: rgb(100, 100, 100); fill-opacity: 1; stroke: rgb(68, 68, 68); stroke-opacity: 1;"/><path class="point" transform="translate(1505.72,297.31)" d="M0.5,0A0.5,0.5 0 1,1 0,-0.5A0.5,0.5 0 0,1 0.5,0Z" style="opacity: 1; stroke-width: 1px; fill: rgb(100, 100, 100); fill-opacity: 1; stroke: rgb(68, 68, 68); stroke-opacity: 1;"/><path class="point" transform="translate(920,216.71)" d="M0.5,0A0.5,0.5 0 1,1 0,-0.5A0.5,0.5 0 0,1 0.5,0Z" style="opacity: 1; stroke-width: 1px; fill: rgb(100, 100, 100); fill-opacity: 1; stroke: rgb(68, 68, 68); stroke-opacity: 1;"/><path class="point" transform="translate(920,139.17)" d="M0.5,0A0.5,0.5 0 1,1 0,-0.5A0.5,0.5 0 0,1 0.5,0Z" style="opacity: 1; stroke-width: 1px; fill: rgb(100, 100, 100); fill-opacity: 1; stroke: rgb(68, 68, 68); stroke-opacity: 1;"/><path class="point" transform="translate(920,86.45)" d="M0.5,0A0.5,0.5 0 1,1 0,-0.5A0.5,0.5 0 0,1 0.5,0Z" style="opacity: 1; stroke-width: 1px; fill: rgb(100, 100, 100); fill-opacity: 1; stroke: rgb(68, 68, 68); stroke-opacity: 1;"/><path class="point" transform="translate(997.55,191.88)" d="M0.5,0A0.5,0.5 0 1,1 0,-0.5A0.5,0.5 0 0,1 0.5,0Z" style="opacity: 1; stroke-width: 1px; fill: rgb(100, 100, 100); fill-opacity: 1; stroke: rgb(68, 68, 68); stroke-opacity: 1;"/><path class="point" transform="translate(997.55,216.71)" d="M0.5,0A0.5,0.5 0 1,1 0,-0.5A0.5,0.5 0 0,1 0.5,0Z" style="opacity: 1; stroke-width: 1px; fill: rgb(100, 100, 100); fill-opacity: 1; stroke: rgb(68, 68, 68); stroke-opacity: 1;"/><path class="point" transform="translate(997.55,177.94)" d="M0.5,0A0.5,0.5 0 1,1 0,-0.5A0.5,0.5 0 0,1 0.5,0Z" style="opacity: 1; stroke-width: 1px; fill: rgb(100, 100, 100); fill-opacity: 1; stroke: rgb(68, 68, 68); stroke-opacity: 1;"/><path class="point" transform="translate(997.55,139.17)" d="M0.5,0A0.5,0.5 0 1,1 0,-0.5A0.5,0.5 0 0,1 0.5,0Z" style="opacity: 1; stroke-width: 1px; fill: rgb(100, 100, 100); fill-opacity: 1; stroke: rgb(68, 68, 68); stroke-opacity: 1;"/><path class="point" transform="translate(997.55,164)" d="M0.5,0A0.5,0.5 0 1,1 0,-0.5A0.5,0.5 0 0,1 0.5,0Z" style="opacity: 1; stroke-width: 1px; fill: rgb(100, 100, 100); fill-opacity: 1; stroke: rgb(68, 68, 68); stroke-opacity: 1;"/><path class="point" transform="translate(1505.72,191.88)" d="M0.5,0A0.5,0.5 0 1,1 0,-0.5A0.5,0.5 0 0,1 0.5,0Z" style="opacity: 1; stroke-width: 1px; fill: rgb(100, 100, 100); fill-opacity: 1; stroke: rgb(68, 68, 68); stroke-opacity: 1;"/><path class="point" transform="translate(1505.72,86.45)" d="M0.5,0A0.5,0.5 0 1,1 0,-0.5A0.5,0.5 0 0,1 0.5,0Z" style="opacity: 1; stroke-width: 1px; fill: rgb(100, 100, 100); fill-opacity: 1; stroke: rgb(68, 68, 68); stroke-opacity: 1;"/></g><g class="text"><g class="textpoint" transform="translate(1.625,3.5)"><text x="568.3" y="441.51" text-anchor="start" style="font-family: Balto; font-size: 14px; fill: rgb(0, 0, 0); fill-opacity: 1; white-space: pre;">		T1</text></g><g class="textpoint" transform="translate(1.625,3.5)"><text x="763.54" y="599.65" text-anchor="start" style="font-family: Balto; font-size: 14px; fill: rgb(0, 0, 0); fill-opacity: 1; white-space: pre;">		T2</text></g><g class="textpoint" transform="translate(1.625,3.5)"><text x="1115.24" y="652.37" text-anchor="start" style="font-family: Balto; font-size: 14px; fill: rgb(0, 0, 0); fill-opacity: 1; white-space: pre;">		loss0</text></g><g class="textpoint" transform="translate(1.625,3.5)"><text x="1505.72" y="534.02" text-anchor="start" style="font-family: Balto; font-size: 14px; fill: rgb(0, 0, 0); fill-opacity: 1; white-space: pre;">		t2_gB_human</text></g><g class="textpoint" transform="translate(1.625,3.5)"><text x="1505.72" y="559.86" text-anchor="start" style="font-family: Balto; font-size: 14px; fill: rgb(0, 0, 0); fill-opacity: 1; white-space: pre;">		t1_gB_human</text></g><g class="textpoint" transform="translate(1.625,3.5)"><text x="1134.63" y="546.94" text-anchor="start" style="font-family: Balto; font-size: 14px; fill: rgb(0, 0, 0); fill-opacity: 1; white-space: pre;">		T3</text></g><g class="textpoint" transform="translate(1.625,3.5)"><text x="763.54" y="283.37" text-anchor="start" style="font-family: Balto; font-size: 14px; fill: rgb(0, 0, 0); fill-opacity: 1; white-space: pre;">		T4</text></g><g class="textpoint" transform="translate(1.625,3.5)"><text x="958.78" y="388.8" text-anchor="start" style="font-family: Balto; font-size: 14px; fill: rgb(0, 0, 0); fill-opacity: 1; white-space: pre;">		T5</text></g><g class="textpoint" transform="translate(1.625,3.5)"><text x="1505.72" y="441.51" text-anchor="start" style="font-family: Balto; font-size: 14px; fill: rgb(0, 0, 0); fill-opacity: 1; white-space: pre;">		t1_gA_mouse</text></g><g class="textpoint" transform="translate(1.625,3.5)"><text x="1505.72" y="323.16" text-anchor="start" style="font-family: Balto; font-size: 14px; fill: rgb(0, 0, 0); fill-opacity: 1; white-space: pre;">		t2_gB_mouse</text></g><g class="textpoint" transform="translate(1.625,3.5)"><text x="1505.72" y="349.01" text-anchor="start" style="font-family: Balto; font-size: 14px; fill: rgb(0, 0, 0); fill-opacity: 1; white-space: pre;">		t1_gB_mouse</text></g><g class="textpoint" transform="translate(1.625,3.5)"><text x="1232.25" y="336.08" text-anchor="start" style="font-family: Balto; font-size: 14px; fill: rgb(0, 0, 0); fill-opacity: 1; white-space: pre;">		T7</text></g><g class="textpoint" transform="translate(1.625,3.5)"><text x="958.78" y="177.94" text-anchor="start" style="font-family: Balto; font-size: 14px; fill: rgb(0, 0, 0); fill-opacity: 1; white-space: pre;">		T6</text></g><g class="textpoint" transform="translate(1.625,3.5)"><text x="1505.72" y="217.73" text-anchor="start" style="font-family: Balto; font-size: 14px; fill: rgb(0, 0, 0); fill-opacity: 1; white-space: pre;">		t2_gA_rabbit</text></g><g class="textpoint" transform="translate(1.625,3.5)"><text x="1505.72" y="243.58" text-anchor="start" style="font-family: Balto; font-size: 14px; fill: rgb(0, 0, 0); fill-opacity: 1; white-space: pre;">		t1_gA_rabbit</text></g><g class="textpoint" transform="translate(1.625,3.5)"><text x="1232.25" y="230.65" text-anchor="start" style="font-family: Balto; font-size: 14px; fill: rgb(0, 0, 0); fill-opacity: 1; white-space: pre;">		T8</text></g><g class="textpoint" transform="translate(1.625,3.5)"><text x="1505.72" y="112.3" text-anchor="start" style="font-family: Balto; font-size: 14px; fill: rgb(0, 0, 0); fill-opacity: 1; white-space: pre;">		t2_gB_rabbit</text></g><g class="textpoint" transform="translate(1.625,3.5)"><text x="1505.72" y="138.15" text-anchor="start" style="font-family: Balto; font-size: 14px; fill: rgb(0, 0, 0); fill-opacity: 1; white-space: pre;">		t1_gB_rabbit</text></g><g class="textpoint" transform="translate(1.625,3.5)"><text x="1232.25" y="125.23" text-anchor="start" style="font-family: Balto; font-size: 14px; fill: rgb(0, 0, 0); fill-opacity: 1; white-space: pre;">		T9</text></g><g class="textpoint" transform="translate(1.625,3.5)"><text x="529.52" y="480.29" text-anchor="start" style="font-family: Balto; font-size: 14px; fill: rgb(0, 0, 0); fill-opacity: 1; white-space: pre;">G1</text></g><g class="textpoint"/><g class="textpoint"/><g class="textpoint"/><g class="textpoint"/><g class="textpoint"/><g class="textpoint"/><g class="textpoint"/><g class="textpoint" transform="translate(1.625,3.5)"><text x="724.76" y="638.43" text-anchor="start" style="font-family: Balto; font-size: 14px; fill: rgb(0, 0, 0); fill-opacity: 1; white-space: pre;">G3</text></g><g class="textpoint"/><g class="textpoint"/><g class="textpoint"/><g class="textpoint"/><g class="textpoint"/><g class="textpoint"/><g class="textpoint"/><g class="textpoint" transform="translate(1.625,3.5)"><text x="1505.72" y="613.59" text-anchor="start" style="font-family: Balto; font-size: 14px; fill: rgb(0, 0, 0); fill-opacity: 1; white-space: pre;">gA_human</text></g><g class="textpoint" transform="translate(1.625,3.5)"><text x="1505.72" y="508.17" text-anchor="start" style="font-family: Balto; font-size: 14px; fill: rgb(0, 0, 0); fill-opacity: 1; white-space: pre;">gB_human</text></g><g class="textpoint" transform="translate(1.625,3.5)"><text x="724.76" y="322.14" text-anchor="start" style="font-family: Balto; font-size: 14px; fill: rgb(0, 0, 0); fill-opacity: 1; white-space: pre;">G4</text></g><g class="textpoint"/><g class="textpoint"/><g class="textpoint"/><g class="textpoint"/><g class="textpoint"/><g class="textpoint"/><g class="textpoint"/><g class="textpoint" transform="translate(1.625,3.5)"><text x="920" y="427.57" text-anchor="start" style="font-family: Balto; font-size: 14px; fill: rgb(0, 0, 0); fill-opacity: 1; white-space: pre;">G5</text></g><g class="textpoint"/><g class="textpoint"/><g class="textpoint"/><g class="textpoint"/><g class="textpoint"/><g class="textpoint"/><g class="textpoint"/><g class="textpoint" transform="translate(1.625,3.5)"><text x="1505.72" y="402.74" text-anchor="start" style="font-family: Balto; font-size: 14px; fill: rgb(0, 0, 0); fill-opacity: 1; white-space: pre;">gA_mouse</text></g><g class="textpoint" transform="translate(1.625,3.5)"><text x="1505.72" y="297.31" text-anchor="start" style="font-family: Balto; font-size: 14px; fill: rgb(0, 0, 0); fill-opacity: 1; white-space: pre;">gB_mouse</text></g><g class="textpoint" transform="translate(1.625,3.5)"><text x="920" y="216.71" text-anchor="start" style="font-family: Balto; font-size: 14px; fill: rgb(0, 0, 0); fill-opacity: 1; white-space: pre;">G6</text></g><g class="textpoint"/><g class="textpoint"/><g class="textpoint"/><g class="textpoint"/><g class="textpoint"/><g class="textpoint"/><g class="textpoint"/><g class="textpoint" transform="translate(1.625,3.5)"><text x="1505.72" y="191.88" text-anchor="start" style="font-family: Balto; font-size: 14px; fill: rgb(0, 0, 0); fill-opacity: 1; white-space: pre;">gA_rabbit</text></g><g class="textpoint" transform="translate(1.625,3.5)"><text x="1505.72" y="86.45" text-anchor="start" style="font-family: Balto; font-size: 14px; fill: rgb(0, 0, 0); fill-opacity: 1; white-space: pre;">gB_rabbit</text></g></g></g></g></g><g class="overplot"/><path class="xlines-above crisp" d="M80,920.5H1920" style="fill: none; stroke-width: 1px; stroke: rgb(255, 255, 255); stroke-opacity: 1;"/><path class="ylines-above crisp" d="M0,0" style="fill: none;"/><g class="overlines-above"/><g class="xaxislayer-above"/><g class="yaxislayer-above"/><g class="overaxes-above"/></g></g><g class="polarlayer"/><g class="ternarylayer"/><g class="geolayer"/><g class="funnelarealayer"/><g class="pielayer"/><g class="treemaplayer"/><g class="sunburstlayer"/><g class="glimages"/><defs id="topdefs-a6bcf3"><g class="clips"/></defs><g class="layer-above"><g class="imagelayer"/><g class="shapelayer"><path data-index="38" fill-rule="evenodd" d="M837.68 705.51L837.68 693.8L849.39 693.8L849.39 705.51Z" clip-path="url('#clipa6bcf3xy')" style="opacity: 1; stroke: rgb(255, 0, 0); stroke-opacity: 1; fill: rgb(255, 0, 0); fill-opacity: 1; stroke-width: 2px;"/><path data-index="41" fill-rule="evenodd" d="M1186.45 761.15L1204.02 743.58Z" clip-path="url('#clipa6bcf3xy')" style="opacity: 1; stroke: rgb(255, 0, 0); stroke-opacity: 1; fill: rgb(255, 255, 255); fill-opacity: 1; stroke-width: 2px;"/><path data-index="42" fill-rule="evenodd" d="M1204.02 761.15L1186.45 743.58Z" clip-path="url('#clipa6bcf3xy')" style="opacity: 1; stroke: rgb(255, 0, 0); stroke-opacity: 1; fill: rgb(255, 255, 255); fill-opacity: 1; stroke-width: 2px;"/><path data-index="53" fill-rule="evenodd" d="M1197.05 646.94L1214.63 652.8L1214.63 641.08Z" clip-path="url('#clipa6bcf3xy')" style="opacity: 1; stroke: rgb(0, 0, 0); stroke-opacity: 1; fill: rgb(0, 0, 0); fill-opacity: 1; stroke-width: 2px;"/><path data-index="58" fill-rule="evenodd" d="M1032.92 494.65L1032.92 482.94L1044.63 482.94L1044.63 494.65Z" clip-path="url('#clipa6bcf3xy')" style="opacity: 1; stroke: rgb(255, 0, 0); stroke-opacity: 1; fill: rgb(255, 0, 0); fill-opacity: 1; stroke-width: 2px;"/><path data-index="71" fill-rule="evenodd" d="M1294.67 436.08L1312.25 441.94L1312.25 430.23Z" clip-path="url('#clipa6bcf3xy')" style="opacity: 1; stroke: rgb(0, 0, 0); stroke-opacity: 1; fill: rgb(0, 0, 0); fill-opacity: 1; stroke-width: 2px;"/><path data-index="74" fill-rule="evenodd" d="M1032.92 283.8L1032.92 272.08000000000004L1044.63 272.08000000000004L1044.63 283.8Z" clip-path="url('#clipa6bcf3xy')" style="opacity: 1; stroke: rgb(255, 0, 0); stroke-opacity: 1; fill: rgb(255, 0, 0); fill-opacity: 1; stroke-width: 2px;"/><path data-index="85" fill-rule="evenodd" d="M1294.67 330.65L1312.25 336.51L1312.25 324.8Z" clip-path="url('#clipa6bcf3xy')" style="opacity: 1; stroke: rgb(0, 0, 0); stroke-opacity: 1; fill: rgb(0, 0, 0); fill-opacity: 1; stroke-width: 2px;"/><path data-index="96" fill-rule="evenodd" d="M1294.67 225.23000000000002L1312.25 231.08L1312.25 219.37Z" clip-path="url('#clipa6bcf3xy')" style="opacity: 1; stroke: rgb(0, 0, 0); stroke-opacity: 1; fill: rgb(0, 0, 0); fill-opacity: 1; stroke-width: 2px;"/></g></g><g class="infolayer"><g class="g-gtitle"><text class="gtitle" x="100" y="50" text-anchor="start" dy="0em" style="font-family: Balto; font-size: 14px; fill: rgb(42, 63, 95); opacity: 1; font-weight: normal; white-space: pre;">Transcript-gene reconciliation</text></g><g class="g-xtitle"><text class="xtitle" x="1000" y="945.5" text-anchor="middle" style="font-family: Arial, sans-serif; font-size: 15px; fill: rgb(0, 0, 0); opacity: 1; font-weight: normal; white-space: pre;">The Reconciliation cost is : 4 creation(s) + 1 loss = 5 event(s)</text></g><g class="g-ytitle"/></g></svg>