<svg class="main-svg" xmlns="http://www.w3.org/2000/svg" xmlns:xlink="http://www.w3.org/1999/xlink" width="4000" height="2000" viewBox="0 0 2000 1000"><rect x="0" y="0" width="2000" height="1000" style="fill: rgb(250, 250, 250); fill-opacity: 1;"/><defs id="defs-a4ce51"><g class="clips"><clipPath id="clipa4ce51xyplot" class="plotclip"><rect width="1840" height="820"/></clipPath><clipPath class="axesclip" id="clipa4ce51x"><rect x="80" y="0" width="1840" height="1000"/></clipPath><clipPath class="axesclip" id="clipa4ce51y"><rect x="0" y="100" width="2000" height="820"/></clipPath><clipPath class="axesclip" id="clipa4ce51xy"><rect x="80" y="100" width="1840" height="820"/></clipPath></g><g class="gradients"/></defs><g class="bglayer"/><g class="layer-below"><g class="imagelayer"/><g class="shapelayer"/></g><g class="cartesianlayer"><g class="subplot xy"><g class="layer-subplot"><g class="shapelayer"><path data-index="0" fill-rule="evenodd" d="M414.29,387L804.76,387" clip-path="url('#clipa4ce51xy')" style="opacity: 1; stroke: rgb(0, 0, 0); stroke-opacity: 1; fill: rgb(0, 0, 0); fill-opacity: 0; stroke-width: 3px;"/><path data-index="1" fill-rule="evenodd" d="M414.29,310.15L804.76,310.15" clip-path="url('#clipa4ce51xy')" style="opacity: 1; stroke: rgb(0, 0, 0); stroke-opacity: 1; fill: rgb(0, 0, 0); fill-opacity: 0; stroke-width: 3px;"/><path data-index="2" fill-rule="evenodd" d="M804.76,474.86L804.76,387" clip-path="url('#clipa4ce51xy')" style="opacity: 1; stroke: rgb(0, 0, 0); stroke-opacity: 1; fill: rgb(0, 0, 0); fill-opacity: 0; stroke-width: 3px;"/><path data-index="3" fill-rule="evenodd" d="M804.76,310.15L804.76,222.3" clip-path="url('#clipa4ce51xy')" style="opacity: 1; stroke: rgb(0, 0, 0); stroke-opacity: 1; fill: rgb(0, 0, 0); fill-opacity: 0; stroke-width: 3px;"/><path data-index="4" fill-rule="evenodd" d="M881.61,398.01L881.61,299.14" clip-path="url('#clipa4ce51xy')" style="opacity: 1; stroke: rgb(0, 0, 0); stroke-opacity: 1; fill: rgb(0, 0, 0); fill-opacity: 0; stroke-width: 3px;"/><path data-index="5" fill-rule="evenodd" d="M804.76,474.86L1195.24,474.86" clip-path="url('#clipa4ce51xy')" style="opacity: 1; stroke: rgb(0, 0, 0); stroke-opacity: 1; fill: rgb(0, 0, 0); fill-opacity: 0; stroke-width: 3px;"/><path data-index="6" fill-rule="evenodd" d="M881.61,398.01L1195.24,398.01" clip-path="url('#clipa4ce51xy')" style="opacity: 1; stroke: rgb(0, 0, 0); stroke-opacity: 1; fill: rgb(0, 0, 0); fill-opacity: 0; stroke-width: 3px;"/><path data-index="7" fill-rule="evenodd" d="M1272.08,416.29L1272.08,456.58" clip-path="url('#clipa4ce51xy')" style="opacity: 1; stroke: rgb(0, 0, 0); stroke-opacity: 1; fill: rgb(0, 0, 0); fill-opacity: 0; stroke-width: 3px;"/><path data-index="8" fill-rule="evenodd" d="M1195.24,398.01L1195.24,339.44" clip-path="url('#clipa4ce51xy')" style="opacity: 1; stroke: rgb(0, 0, 0); stroke-opacity: 1; fill: rgb(0, 0, 0); fill-opacity: 0; stroke-width: 3px;"/><path data-index="9" fill-rule="evenodd" d="M1195.24,533.4300000000001L1195.24,474.86" clip-path="url('#clipa4ce51xy')" style="opacity: 1; stroke: rgb(0, 0, 0); stroke-opacity: 1; fill: rgb(0, 0, 0); fill-opacity: 0; stroke-width: 3px;"/><path data-index="10" fill-rule="evenodd" d="M1195.24,533.4300000000001L1585.71,533.4300000000001" clip-path="url('#clipa4ce51xy')" style="opacity: 1; stroke: rgb(0, 0, 0); stroke-opacity: 1; fill: rgb(0, 0, 0); fill-opacity: 0; stroke-width: 3px;"/><path data-index="11" fill-rule="evenodd" d="M1272.08,456.58L1585.71,456.58" clip-path="url('#clipa4ce51xy')" style="opacity: 1; stroke: rgb(0, 0, 0); stroke-opacity: 1; fill: rgb(0, 0, 0); fill-opacity: 0; stroke-width: 3px;"/><path data-index="12" fill-rule="evenodd" d="M1272.08,416.29L1585.71,416.29" clip-path="url('#clipa4ce51xy')" style="opacity: 1; stroke: rgb(0, 0, 0); stroke-opacity: 1; fill: rgb(0, 0, 0); fill-opacity: 0; stroke-width: 3px;"/><path data-index="13" fill-rule="evenodd" d="M1195.24,339.44L1585.71,339.44" clip-path="url('#clipa4ce51xy')" style="opacity: 1; stroke: rgb(0, 0, 0); stroke-opacity: 1; fill: rgb(0, 0, 0); fill-opacity: 0; stroke-width: 3px;"/><path data-index="14" fill-rule="evenodd" d="M881.61,299.14L1585.71,299.14" clip-path="url('#clipa4ce51xy')" style="opacity: 1; stroke: rgb(0, 0, 0); stroke-opacity: 1; fill: rgb(0, 0, 0); fill-opacity: 0; stroke-width: 3px;"/><path data-index="15" fill-rule="evenodd" d="M804.76,222.3L1585.71,222.3" clip-path="url('#clipa4ce51xy')" style="opacity: 1; stroke: rgb(0, 0, 0); stroke-opacity: 1; fill: rgb(0, 0, 0); fill-opacity: 0; stroke-width: 3px;"/><path data-index="16" fill-rule="evenodd" d="M414.29,348.58000000000004L843.18,348.58000000000004" clip-path="url('#clipa4ce51xy')" style="opacity: 1; stroke: rgb(255, 0, 0); stroke-opacity: 1; fill: rgb(0, 0, 0); fill-opacity: 0; stroke-width: 3px;"/><path data-index="17" fill-rule="evenodd" d="M843.18,348.58000000000004L843.18,436.43" clip-path="url('#clipa4ce51xy')" style="opacity: 1; stroke: rgb(255, 0, 0); stroke-opacity: 1; fill: rgb(0, 0, 0); fill-opacity: 0; stroke-width: 3px;"/><path data-index="18" fill-rule="evenodd" d="M843.18,436.43L1233.66,436.43" clip-path="url('#clipa4ce51xy')" style="opacity: 1; stroke: rgb(255, 0, 0); stroke-opacity: 1; fill: rgb(0, 0, 0); fill-opacity: 0; stroke-width: 3px;"/><path data-index="19" fill-rule="evenodd" d="M1233.66,436.43L1233.66,495.01" clip-path="url('#clipa4ce51xy')" style="opacity: 1; stroke: rgb(255, 0, 0); stroke-opacity: 1; fill: rgb(0, 0, 0); fill-opacity: 0; stroke-width: 3px;"/><path data-index="20" fill-rule="evenodd" d="M1233.66,495.01L1390.48,495.01" clip-path="url('#clipa4ce51xy')" style="opacity: 1; stroke: rgb(255, 0, 0); stroke-opacity: 1; fill: rgb(0, 0, 0); fill-opacity: 0; stroke-width: 3px;"/><path data-index="23" fill-rule="evenodd" d="M1233.66,436.43L1233.66,377.86" clip-path="url('#clipa4ce51xy')" style="opacity: 1; stroke: rgb(255, 0, 0); stroke-opacity: 1; fill: rgb(0, 0, 0); fill-opacity: 0; stroke-width: 3px;"/><path data-index="24" fill-rule="evenodd" d="M1233.66,377.86L1409.69,377.86" clip-path="url('#clipa4ce51xy')" style="opacity: 1; stroke: rgb(255, 0, 0); stroke-opacity: 1; fill: rgb(0, 0, 0); fill-opacity: 0; stroke-width: 3px;"/><path data-index="25" fill-rule="evenodd" d="M1409.69,377.86L1409.69,390.67" clip-path="url('#clipa4ce51xy')" style="opacity: 1; stroke: rgb(255, 0, 0); stroke-opacity: 1; fill: rgb(0, 0, 0); fill-opacity: 0; stroke-width: 3px;"/><path data-index="26" fill-rule="evenodd" d="M1409.69,377.86L1409.69,365.06" clip-path="url('#clipa4ce51xy')" style="opacity: 1; stroke: rgb(255, 0, 0); stroke-opacity: 1; fill: rgb(0, 0, 0); fill-opacity: 0; stroke-width: 3px;"/><path data-index="27" fill-rule="evenodd" d="M1409.69,390.67L1585.71,390.67" clip-path="url('#clipa4ce51xy')" style="opacity: 1; stroke: rgb(255, 0, 0); stroke-opacity: 1; fill: rgb(0, 0, 0); fill-opacity: 0; stroke-width: 3px;"/><path data-index="28" fill-rule="evenodd" d="M1409.69,365.06L1585.71,365.06" clip-path="url('#clipa4ce51xy')" style="opacity: 1; stroke: rgb(255, 0, 0); stroke-opacity: 1; fill: rgb(0, 0, 0); fill-opacity: 0; stroke-width: 3px;"/><path data-index="30" fill-rule="evenodd" d="M843.18,348.58000000000004L843.18,260.72" clip-path="url('#clipa4ce51xy')" style="opacity: 1; stroke: rgb(255, 0, 0); stroke-opacity: 1; fill: rgb(0, 0, 0); fill-opacity: 0; stroke-width: 3px;"/><path data-index="31" fill-rule="evenodd" d="M843.18,260.72L1214.45,260.72" clip-path="url('#clipa4ce51xy')" style="opacity: 1; stroke: rgb(255, 0, 0); stroke-opacity: 1; fill: rgb(0, 0, 0); fill-opacity: 0; stroke-width: 3px;"/><path data-index="32" fill-rule="evenodd" d="M1214.45,260.72L1214.45,273.53" clip-path="url('#clipa4ce51xy')" style="opacity: 1; stroke: rgb(255, 0, 0); stroke-opacity: 1; fill: rgb(0, 0, 0); fill-opacity: 0; stroke-width: 3px;"/><path data-index="33" fill-rule="evenodd" d="M1214.45,260.72L1214.45,247.91" clip-path="url('#clipa4ce51xy')" style="opacity: 1; stroke: rgb(255, 0, 0); stroke-opacity: 1; fill: rgb(0, 0, 0); fill-opacity: 0; stroke-width: 3px;"/><path data-index="34" fill-rule="evenodd" d="M1214.45,273.53L1585.71,273.53" clip-path="url('#clipa4ce51xy')" style="opacity: 1; stroke: rgb(255, 0, 0); stroke-opacity: 1; fill: rgb(0, 0, 0); fill-opacity: 0; stroke-width: 3px;"/><path data-index="35" fill-rule="evenodd" d="M1214.45,247.91L1585.71,247.91" clip-path="url('#clipa4ce51xy')" style="opacity: 1; stroke: rgb(255, 0, 0); stroke-opacity: 1; fill: rgb(0, 0, 0); fill-opacity: 0; stroke-width: 3px;"/></g><g class="imagelayer"/></g><g class="gridlayer"><g class="x"/><g class="y"/></g><g class="zerolinelayer"/><path class="xlines-below"/><path class="ylines-below"/><g class="overlines-below"/><g class="xaxislayer-below"/><g class="yaxislayer-below"/><g class="overaxes-below"/><g class="plot" transform="translate(80, 100)" clip-path="url('#clipa4ce51xyplot')"><g class="scatterlayer mlayer"><g class="trace scatter trace9849f6" style="stroke-miterlimit: 2; opacity: 1;"><g class="fills"/><g class="errorbars"/><g class="lines"/><g class="points"><path class="point" transform="translate(763.18,248.58)" d="M0.5,0A0.5,0.5 0 1,1 0,-0.5A0.5,0.5 0 0,1 0.5,0Z" style="opacity: 1; stroke-width: 1px; fill: rgb(100, 100, 100); fill-opacity: 1; stroke: rgb(68, 68, 68); stroke-opacity: 1;"/><path class="point" transform="translate(1153.66,336.43)" d="M0.5,0A0.5,0.5 0 1,1 0,-0.5A0.5,0.5 0 0,1 0.5,0Z" style="opacity: 1; stroke-width: 1px; fill: rgb(100, 100, 100); fill-opacity: 1; stroke: rgb(68, 68, 68); stroke-opacity: 1;"/><path class="point" transform="translate(1310.48,395.01)" d="M0.5,0A0.5,0.5 0 1,1 0,-0.5A0.5,0.5 0 0,1 0.5,0Z" style="opacity: 1; stroke-width: 1px; fill: rgb(100, 100, 100); fill-opacity: 1; stroke: rgb(68, 68, 68); stroke-opacity: 1;"/><path class="point" transform="translate(1505.71,265.06)" d="M0.5,0A0.5,0.5 0 1,1 0,-0.5A0.5,0.5 0 0,1 0.5,0Z" style="opacity: 1; stroke-width: 1px; fill: rgb(100, 100, 100); fill-opacity: 1; stroke: rgb(68, 68, 68); stroke-opacity: 1;"/><path class="point" transform="translate(1505.71,290.67)" d="M0.5,0A0.5,0.5 0 1,1 0,-0.5A0.5,0.5 0 0,1 0.5,0Z" style="opacity: 1; stroke-width: 1px; fill: rgb(100, 100, 100); fill-opacity: 1; stroke: rgb(68, 68, 68); stroke-opacity: 1;"/><path class="point" transform="translate(1329.69,277.86)" d="M0.5,0A0.5,0.5 0 1,1 0,-0.5A0.5,0.5 0 0,1 0.5,0Z" style="opacity: 1; stroke-width: 1px; fill: rgb(100, 100, 100); fill-opacity: 1; stroke: rgb(68, 68, 68); stroke-opacity: 1;"/><path class="point" transform="translate(1505.71,147.91)" d="M0.5,0A0.5,0.5 0 1,1 0,-0.5A0.5,0.5 0 0,1 0.5,0Z" style="opacity: 1; stroke-width: 1px; fill: rgb(100, 100, 100); fill-opacity: 1; stroke: rgb(68, 68, 68); stroke-opacity: 1;"/><path class="point" transform="translate(1505.71,173.53)" d="M0.5,0A0.5,0.5 0 1,1 0,-0.5A0.5,0.5 0 0,1 0.5,0Z" style="opacity: 1; stroke-width: 1px; fill: rgb(100, 100, 100); fill-opacity: 1; stroke: rgb(68, 68, 68); stroke-opacity: 1;"/><path class="point" transform="translate(1134.45,160.72)" d="M0.5,0A0.5,0.5 0 1,1 0,-0.5A0.5,0.5 0 0,1 0.5,0Z" style="opacity: 1; stroke-width: 1px; fill: rgb(100, 100, 100); fill-opacity: 1; stroke: rgb(68, 68, 68); stroke-opacity: 1;"/><path class="point" transform="translate(724.76,287)" d="M0.5,0A0.5,0.5 0 1,1 0,-0.5A0.5,0.5 0 0,1 0.5,0Z" style="opacity: 1; stroke-width: 1px; fill: rgb(100, 100, 100); fill-opacity: 1; stroke: rgb(68, 68, 68); stroke-opacity: 1;"/><path class="point" transform="translate(1115.24,374.86)" d="M0.5,0A0.5,0.5 0 1,1 0,-0.5A0.5,0.5 0 0,1 0.5,0Z" style="opacity: 1; stroke-width: 1px; fill: rgb(100, 100, 100); fill-opacity: 1; stroke: rgb(68, 68, 68); stroke-opacity: 1;"/><path class="point" transform="translate(1505.71,356.58)" d="M0.5,0A0.5,0.5 0 1,1 0,-0.5A0.5,0.5 0 0,1 0.5,0Z" style="opacity: 1; stroke-width: 1px; fill: rgb(100, 100, 100); fill-opacity: 1; stroke: rgb(68, 68, 68); stroke-opacity: 1;"/><path class="point" transform="translate(1505.71,239.44)" d="M0.5,0A0.5,0.5 0 1,1 0,-0.5A0.5,0.5 0 0,1 0.5,0Z" style="opacity: 1; stroke-width: 1px; fill: rgb(100, 100, 100); fill-opacity: 1; stroke: rgb(68, 68, 68); stroke-opacity: 1;"/><path class="point" transform="translate(1505.71,122.3)" d="M0.5,0A0.5,0.5 0 1,1 0,-0.5A0.5,0.5 0 0,1 0.5,0Z" style="opacity: 1; stroke-width: 1px; fill: rgb(100, 100, 100); fill-opacity: 1; stroke: rgb(68, 68, 68); stroke-opacity: 1;"/></g><g class="text"><g class="textpoint" transform="translate(1.625,3.5)"><text x="763.18" y="248.58" text-anchor="start" style="font-family: Balto; font-size: 14px; fill: rgb(0, 0, 0); fill-opacity: 1; white-space: pre;">		G1</text></g><g class="textpoint" transform="translate(1.625,3.5)"><text x="1153.66" y="336.43" text-anchor="start" style="font-family: Balto; font-size: 14px; fill: rgb(0, 0, 0); fill-opacity: 1; white-space: pre;">		G2</text></g><g class="textpoint" transform="translate(1.625,3.5)"><text x="1310.48" y="395.01" text-anchor="start" style="font-family: Balto; font-size: 14px; fill: rgb(0, 0, 0); fill-opacity: 1; white-space: pre;">		-</text></g><g class="textpoint" transform="translate(1.625,3.5)"><text x="1505.71" y="265.06" text-anchor="start" style="font-family: Balto; font-size: 14px; fill: rgb(0, 0, 0); fill-opacity: 1; white-space: pre;">		gB_human</text></g><g class="textpoint" transform="translate(1.625,3.5)"><text x="1505.71" y="290.67" text-anchor="start" style="font-family: Balto; font-size: 14px; fill: rgb(0, 0, 0); fill-opacity: 1; white-space: pre;">		gA_human</text></g><g class="textpoint" transform="translate(1.625,3.5)"><text x="1329.69" y="277.86" text-anchor="start" style="font-family: Balto; font-size: 14px; fill: rgb(0, 0, 0); fill-opacity: 1; white-space: pre;">		G3</text></g><g class="textpoint" transform="translate(1.625,3.5)"><text x="1505.71" y="147.91" text-anchor="start" style="font-family: Balto; font-size: 14px; fill: rgb(0, 0, 0); fill-opacity: 1; white-space: pre;">		gB_mouse</text></g><g class="textpoint" transform="translate(1.625,3.5)"><text x="1505.71" y="173.53" text-anchor="start" style="font-family: Balto; font-size: 14px; fill: rgb(0, 0, 0); fill-opacity: 1; white-space: pre;">		gA_mouse</text></g><g class="textpoint" transform="translate(1.625,3.5)"><text x="1134.45" y="160.72" text-anchor="start" style="font-family: Balto; font-size: 14px; fill: rgb(0, 0, 0); fill-opacity: 1; white-space: pre;">		G4</text></g><g class="textpoint" transform="translate(1.625,3.5)"><text x="724.76" y="287" text-anchor="start" style="font-family: Balto; font-size: 14px; fill: rgb(0, 0, 0); fill-opacity: 1; white-space: pre;">S1</text></g><g class="textpoint" transform="translate(1.625,3.5)"><text x="1115.24" y="374.86" text-anchor="start" style="font-family: Balto; font-size: 14px; fill: rgb(0, 0, 0); fill-opacity: 1; white-space: pre;">S2</text></g><g class="textpoint" transform="translate(1.625,3.5)"><text x="1505.71" y="356.58" text-anchor="start" style="font-family: Balto; font-size: 14px; fill: rgb(0, 0, 0); fill-opacity: 1; white-space: pre;">GORILLA</text></g><g class="textpoint" transform="translate(1.625,3.5)"><text x="1505.71" y="239.44" text-anchor="start" style="font-family: Balto; font-size: 14px; fill: rgb(0, 0, 0); fill-opacity: 1; white-space: pre;">HUMAN</text></g><g class="textpoint" transform="translate(1.625,3.5)"><text x="1505.71" y="122.3" text-anchor="start" style="font-family: Balto; font-size: 14px; fill: rgb(0, 0, 0); fill-opacity: 1; white-space: pre;">MOUSE</text></g></g></g></g></g><g class="overplot"/><path class="xlines-above crisp" d="M80,920.5H1920" style="fill: none; stroke-width: 1px; stroke: rgb(255, 255, 255); stroke-opacity: 1;"/><path class="ylines-above crisp" d="M0,0" style="fill: none;"/><g class="overlines-above"/><g class="xaxislayer-above"/><g class="yaxislayer-above"/><g class="overaxes-above"/></g></g><g class="polarlayer"/><g class="ternarylayer"/><g class="geolayer"/><g class="funnelarealayer"/><g class="pielayer"/><g class="treemaplayer"/><g class="sunburstlayer"/><g class="glimages"/><defs id="topdefs-a4ce51"><g class="clips"/></defs><g class="layer-above"><g class="imagelayer"/><g class="shapelayer"><path data-index="21" fill-rule="evenodd" d="M1381.69 503.79L1399.26 486.22Z" clip-path="url('#clipa4ce51xy')" style="opacity: 1; stroke: rgb(255, 0, 0); stroke-opacity: 1; fill: rgb(255, 255, 255); fill-opacity: 1; stroke-width: 2px;"/><path data-index="22" fill-rule="evenodd" d="M1399.26 503.79L1381.69 486.22Z" clip-path="url('#clipa4ce51xy')" style="opacity: 1; stroke: rgb(255, 0, 0); stroke-opacity: 1; fill: rgb(255, 255, 255); fill-opacity: 1; stroke-width: 2px;"/><path data-index="29" fill-rule="evenodd" d="M1403.83 383.72L1403.83 372.01L1415.54 372.01L1415.54 383.72Z" clip-path="url('#clipa4ce51xy')" style="opacity: 1; stroke: rgb(255, 0, 0); stroke-opacity: 1; fill: rgb(255, 0, 0); fill-opacity: 1; stroke-width: 2px;"/><path data-index="36" fill-rule="evenodd" d="M1208.59 266.58000000000004L1208.59 254.86L1220.31 254.86L1220.31 266.58000000000004Z" clip-path="url('#clipa4ce51xy')" style="opacity: 1; stroke: rgb(255, 0, 0); stroke-opacity: 1; fill: rgb(255, 0, 0); fill-opacity: 1; stroke-width: 2px;"/></g></g><g class="infolayer"><g class="g-gtitle"><text class="gtitle" x="100" y="50" text-anchor="start" dy="0em" style="font-family: Balto; font-size: 14px; fill: rgb(42, 63, 95); opacity: 1; font-weight: normal; white-space: pre;">Gene-species reconciliation</text></g><g class="g-xtitle"><text class="xtitle" x="1000" y="945.5" text-anchor="middle" style="font-family: Arial, sans-serif; font-size: 15px; fill: rgb(0, 0, 0); opacity: 1; font-weight: normal; white-space: pre;">The Reconciliation cost is : 2 duplication(s) + 1 loss = 3 event(s)</text></g><g class="g-ytitle"/></g></svg>