<svg class="main-svg" xmlns="http://www.w3.org/2000/svg" xmlns:xlink="http://www.w3.org/1999/xlink" width="4000" height="2000" viewBox="0 0 2000 1000"><rect x="0" y="0" width="2000" height="1000" style="fill: rgb(250, 250, 250); fill-opacity: 1;"/><defs id="defs-4282d9"><g class="clips"><clipPath id="clip4282d9xyplot" class="plotclip"><rect width="1840" height="820"/></clipPath><clipPath class="axesclip" id="clip4282d9x"><rect x="80" y="0" width="1840" height="1000"/></clipPath><clipPath class="axesclip" id="clip4282d9y"><rect x="0" y="100" width="2000" height="820"/></clipPath><clipPath class="axesclip" id="clip4282d9xy"><rect x="80" y="100" width="1840" height="820"/></clipPath></g><g class="gradients"/></defs><g class="bglayer"/><g class="layer-below"><g class="imagelayer"/><g class="shapelayer"/></g><g class="cartesianlayer"><g class="subplot xy"><g class="layer-subplot"><g class="shapelayer"><path data-index="0" fill-rule="evenodd" d="M414.29,463.14L707.14,463.14" clip-path="url('#clip4282d9xy')" style="opacity: 1; stroke: rgb(255, 0, 0); stroke-opacity: 1; fill: rgb(0, 0, 0); fill-opacity: 0; stroke-width: 3px;"/><path data-index="1" fill-rule="evenodd" d="M414.29,386.06L707.14,386.06" clip-path="url('#clip4282d9xy')" style="opacity: 1; stroke: rgb(255, 0, 0); stroke-opacity: 1; fill: rgb(0, 0, 0); fill-opacity: 0; stroke-width: 3px;"/><path data-index="2" fill-rule="evenodd" d="M707.14,580.29L707.14,463.14" clip-path="url('#clip4282d9xy')" style="opacity: 1; stroke: rgb(255, 0, 0); stroke-opacity: 1; fill: rgb(0, 0, 0); fill-opacity: 0; stroke-width: 3px;"/><path data-index="3" fill-rule="evenodd" d="M707.14,386.06L707.14,268.91999999999996" clip-path="url('#clip4282d9xy')" style="opacity: 1; stroke: rgb(255, 0, 0); stroke-opacity: 1; fill: rgb(0, 0, 0); fill-opacity: 0; stroke-width: 3px;"/><path data-index="4" fill-rule="evenodd" d="M784.22,503.21L784.22,346" clip-path="url('#clip4282d9xy')" style="opacity: 1; stroke: rgb(255, 0, 0); stroke-opacity: 1; fill: rgb(0, 0, 0); fill-opacity: 0; stroke-width: 3px;"/><path data-index="5" fill-rule="evenodd" d="M707.14,580.29L1000,580.29" clip-path="url('#clip4282d9xy')" style="opacity: 1; stroke: rgb(255, 0, 0); stroke-opacity: 1; fill: rgb(0, 0, 0); fill-opacity: 0; stroke-width: 3px;"/><path data-index="6" fill-rule="evenodd" d="M784.22,503.21L1000,503.21" clip-path="url('#clip4282d9xy')" style="opacity: 1; stroke: rgb(255, 0, 0); stroke-opacity: 1; fill: rgb(0, 0, 0); fill-opacity: 0; stroke-width: 3px;"/><path data-index="7" fill-rule="evenodd" d="M1077.08,521.71L1077.08,561.78" clip-path="url('#clip4282d9xy')" style="opacity: 1; stroke: rgb(255, 0, 0); stroke-opacity: 1; fill: rgb(0, 0, 0); fill-opacity: 0; stroke-width: 3px;"/><path data-index="8" fill-rule="evenodd" d="M1000,503.21L1000,444.63" clip-path="url('#clip4282d9xy')" style="opacity: 1; stroke: rgb(255, 0, 0); stroke-opacity: 1; fill: rgb(0, 0, 0); fill-opacity: 0; stroke-width: 3px;"/><path data-index="9" fill-rule="evenodd" d="M1000,638.86L1000,580.29" clip-path="url('#clip4282d9xy')" style="opacity: 1; stroke: rgb(255, 0, 0); stroke-opacity: 1; fill: rgb(0, 0, 0); fill-opacity: 0; stroke-width: 3px;"/><path data-index="10" fill-rule="evenodd" d="M1000,638.86L1585.71,638.86" clip-path="url('#clip4282d9xy')" style="opacity: 1; stroke: rgb(255, 0, 0); stroke-opacity: 1; fill: rgb(0, 0, 0); fill-opacity: 0; stroke-width: 3px;"/><path data-index="11" fill-rule="evenodd" d="M1077.08,561.78L1585.71,561.78" clip-path="url('#clip4282d9xy')" style="opacity: 1; stroke: rgb(255, 0, 0); stroke-opacity: 1; fill: rgb(0, 0, 0); fill-opacity: 0; stroke-width: 3px;"/><path data-index="12" fill-rule="evenodd" d="M1077.08,521.71L1585.71,521.71" clip-path="url('#clip4282d9xy')" style="opacity: 1; stroke: rgb(255, 0, 0); stroke-opacity: 1; fill: rgb(0, 0, 0); fill-opacity: 0; stroke-width: 3px;"/><path data-index="13" fill-rule="evenodd" d="M1000,444.63L1585.71,444.63" clip-path="url('#clip4282d9xy')" style="opacity: 1; stroke: rgb(255, 0, 0); stroke-opacity: 1; fill: rgb(0, 0, 0); fill-opacity: 0; stroke-width: 3px;"/><path data-index="14" fill-rule="evenodd" d="M707.14,268.91999999999996L1000,268.91999999999996" clip-path="url('#clip4282d9xy')" style="opacity: 1; stroke: rgb(255, 0, 0); stroke-opacity: 1; fill: rgb(0, 0, 0); fill-opacity: 0; stroke-width: 3px;"/><path data-index="15" fill-rule="evenodd" d="M784.22,346L1000,346" clip-path="url('#clip4282d9xy')" style="opacity: 1; stroke: rgb(255, 0, 0); stroke-opacity: 1; fill: rgb(0, 0, 0); fill-opacity: 0; stroke-width: 3px;"/><path data-index="16" fill-rule="evenodd" d="M1077.08,287.43L1077.08,327.49" clip-path="url('#clip4282d9xy')" style="opacity: 1; stroke: rgb(255, 0, 0); stroke-opacity: 1; fill: rgb(0, 0, 0); fill-opacity: 0; stroke-width: 3px;"/><path data-index="17" fill-rule="evenodd" d="M1000,268.91999999999996L1000,210.35" clip-path="url('#clip4282d9xy')" style="opacity: 1; stroke: rgb(255, 0, 0); stroke-opacity: 1; fill: rgb(0, 0, 0); fill-opacity: 0; stroke-width: 3px;"/><path data-index="18" fill-rule="evenodd" d="M1000,404.57L1000,346" clip-path="url('#clip4282d9xy')" style="opacity: 1; stroke: rgb(255, 0, 0); stroke-opacity: 1; fill: rgb(0, 0, 0); fill-opacity: 0; stroke-width: 3px;"/><path data-index="19" fill-rule="evenodd" d="M1000,404.57L1585.71,404.57" clip-path="url('#clip4282d9xy')" style="opacity: 1; stroke: rgb(255, 0, 0); stroke-opacity: 1; fill: rgb(0, 0, 0); fill-opacity: 0; stroke-width: 3px;"/><path data-index="20" fill-rule="evenodd" d="M1077.08,327.49L1585.71,327.49" clip-path="url('#clip4282d9xy')" style="opacity: 1; stroke: rgb(255, 0, 0); stroke-opacity: 1; fill: rgb(0, 0, 0); fill-opacity: 0; stroke-width: 3px;"/><path data-index="21" fill-rule="evenodd" d="M1077.08,287.43L1585.71,287.43" clip-path="url('#clip4282d9xy')" style="opacity: 1; stroke: rgb(255, 0, 0); stroke-opacity: 1; fill: rgb(0, 0, 0); fill-opacity: 0; stroke-width: 3px;"/><path data-index="22" fill-rule="evenodd" d="M1000,210.35L1585.71,210.35" clip-path="url('#clip4282d9xy')" style="opacity: 1; stroke: rgb(255, 0, 0); stroke-opacity: 1; fill: rgb(0, 0, 0); fill-opacity: 0; stroke-width: 3px;"/><path data-index="23" fill-rule="evenodd" d="M414.29,424.6L745.68,424.6" clip-path="url('#clip4282d9xy')" style="opacity: 1; stroke: rgb(0, 0, 255); stroke-opacity: 1; fill: rgb(0, 0, 0); fill-opacity: 0; stroke-width: 3px;"/><path data-index="24" fill-rule="evenodd" d="M745.68,424.6L745.68,541.75" clip-path="url('#clip4282d9xy')" style="opacity: 1; stroke: rgb(0, 0, 255); stroke-opacity: 1; fill: rgb(0, 0, 0); fill-opacity: 0; stroke-width: 3px;"/><path data-index="25" fill-rule="evenodd" d="M745.68,541.75L1038.54,541.75" clip-path="url('#clip4282d9xy')" style="opacity: 1; stroke: rgb(0, 0, 255); stroke-opacity: 1; fill: rgb(0, 0, 0); fill-opacity: 0; stroke-width: 3px;"/><path data-index="26" fill-rule="evenodd" d="M1038.54,541.75L1038.54,600.3199999999999" clip-path="url('#clip4282d9xy')" style="opacity: 1; stroke: rgb(0, 0, 255); stroke-opacity: 1; fill: rgb(0, 0, 0); fill-opacity: 0; stroke-width: 3px;"/><path data-index="27" fill-rule="evenodd" d="M1038.54,600.3199999999999L1292.86,600.3199999999999" clip-path="url('#clip4282d9xy')" style="opacity: 1; stroke: rgb(0, 0, 255); stroke-opacity: 1; fill: rgb(0, 0, 0); fill-opacity: 0; stroke-width: 3px;"/><path data-index="30" fill-rule="evenodd" d="M1038.54,541.75L1038.54,483.17" clip-path="url('#clip4282d9xy')" style="opacity: 1; stroke: rgb(0, 0, 255); stroke-opacity: 1; fill: rgb(0, 0, 0); fill-opacity: 0; stroke-width: 3px;"/><path data-index="31" fill-rule="evenodd" d="M1038.54,483.17L1312.13,483.17" clip-path="url('#clip4282d9xy')" style="opacity: 1; stroke: rgb(0, 0, 255); stroke-opacity: 1; fill: rgb(0, 0, 0); fill-opacity: 0; stroke-width: 3px;"/><path data-index="32" fill-rule="evenodd" d="M1312.13,483.17L1312.13,496.02" clip-path="url('#clip4282d9xy')" style="opacity: 1; stroke: rgb(0, 0, 255); stroke-opacity: 1; fill: rgb(0, 0, 0); fill-opacity: 0; stroke-width: 3px;"/><path data-index="33" fill-rule="evenodd" d="M1312.13,483.17L1312.13,470.33" clip-path="url('#clip4282d9xy')" style="opacity: 1; stroke: rgb(0, 0, 255); stroke-opacity: 1; fill: rgb(0, 0, 0); fill-opacity: 0; stroke-width: 3px;"/><path data-index="34" fill-rule="evenodd" d="M1312.13,496.02L1585.71,496.02" clip-path="url('#clip4282d9xy')" style="opacity: 1; stroke: rgb(0, 0, 255); stroke-opacity: 1; fill: rgb(0, 0, 0); fill-opacity: 0; stroke-width: 3px;"/><path data-index="35" fill-rule="evenodd" d="M1312.13,470.33L1585.71,470.33" clip-path="url('#clip4282d9xy')" style="opacity: 1; stroke: rgb(0, 0, 255); stroke-opacity: 1; fill: rgb(0, 0, 0); fill-opacity: 0; stroke-width: 3px;"/><path data-index="37" fill-rule="evenodd" d="M745.68,424.6L745.68,307.46000000000004" clip-path="url('#clip4282d9xy')" style="opacity: 1; stroke: rgb(0, 0, 255); stroke-opacity: 1; fill: rgb(0, 0, 0); fill-opacity: 0; stroke-width: 3px;"/><path data-index="38" fill-rule="evenodd" d="M745.68,307.46000000000004L1038.54,307.46000000000004" clip-path="url('#clip4282d9xy')" style="opacity: 1; stroke: rgb(0, 0, 255); stroke-opacity: 1; fill: rgb(0, 0, 0); fill-opacity: 0; stroke-width: 3px;"/><path data-index="39" fill-rule="evenodd" d="M1038.54,307.46000000000004L1038.54,366.03" clip-path="url('#clip4282d9xy')" style="opacity: 1; stroke: rgb(0, 0, 255); stroke-opacity: 1; fill: rgb(0, 0, 0); fill-opacity: 0; stroke-width: 3px;"/><path data-index="40" fill-rule="evenodd" d="M1038.54,366.03L1585.71,366.03" clip-path="url('#clip4282d9xy')" style="opacity: 1; stroke: rgb(0, 0, 255); stroke-opacity: 1; fill: rgb(0, 0, 0); fill-opacity: 0; stroke-width: 3px;"/><path data-index="41" fill-rule="evenodd" d="M1038.54,307.46000000000004L1038.54,248.89" clip-path="url('#clip4282d9xy')" style="opacity: 1; stroke: rgb(0, 0, 255); stroke-opacity: 1; fill: rgb(0, 0, 0); fill-opacity: 0; stroke-width: 3px;"/><path data-index="42" fill-rule="evenodd" d="M1038.54,248.89L1312.13,248.89" clip-path="url('#clip4282d9xy')" style="opacity: 1; stroke: rgb(0, 0, 255); stroke-opacity: 1; fill: rgb(0, 0, 0); fill-opacity: 0; stroke-width: 3px;"/><path data-index="43" fill-rule="evenodd" d="M1312.13,248.89L1312.13,261.74" clip-path="url('#clip4282d9xy')" style="opacity: 1; stroke: rgb(0, 0, 255); stroke-opacity: 1; fill: rgb(0, 0, 0); fill-opacity: 0; stroke-width: 3px;"/><path data-index="44" fill-rule="evenodd" d="M1312.13,248.89L1312.13,236.04" clip-path="url('#clip4282d9xy')" style="opacity: 1; stroke: rgb(0, 0, 255); stroke-opacity: 1; fill: rgb(0, 0, 0); fill-opacity: 0; stroke-width: 3px;"/><path data-index="45" fill-rule="evenodd" d="M1312.13,261.74L1585.71,261.74" clip-path="url('#clip4282d9xy')" style="opacity: 1; stroke: rgb(0, 0, 255); stroke-opacity: 1; fill: rgb(0, 0, 0); fill-opacity: 0; stroke-width: 3px;"/><path data-index="46" fill-rule="evenodd" d="M1312.13,236.04L1585.71,236.04" clip-path="url('#clip4282d9xy')" style="opacity: 1; stroke: rgb(0, 0, 255); stroke-opacity: 1; fill: rgb(0, 0, 0); fill-opacity: 0; stroke-width: 3px;"/></g><g class="imagelayer"/></g><g class="gridlayer"><g class="x"/><g class="y"/></g><g class="zerolinelayer"/><path class="xlines-below"/><path class="ylines-below"/><g class="overlines-below"/><g class="xaxislayer-below"/><g class="yaxislayer-below"/><g class="overaxes-below"/><g class="plot" transform="translate(80, 100)" clip-path="url('#clip4282d9xyplot')"><g class="scatterlayer mlayer"><g class="trace scatter trace144e4e" style="stroke-miterlimit: 2; opacity: 1;"><g class="fills"/><g class="errorbars"/><g class="lines"/><g class="points"><path class="point" transform="translate(665.68,324.6)" d="M0.5,0A0.5,0.5 0 1,1 0,-0.5A0.5,0.5 0 0,1 0.5,0Z" style="opacity: 1; stroke-width: 1px; fill: rgb(100, 100, 100); fill-opacity: 1; stroke: rgb(68, 68, 68); stroke-opacity: 1;"/><path class="point" transform="translate(958.54,441.75)" d="M0.5,0A0.5,0.5 0 1,1 0,-0.5A0.5,0.5 0 0,1 0.5,0Z" style="opacity: 1; stroke-width: 1px; fill: rgb(100, 100, 100); fill-opacity: 1; stroke: rgb(68, 68, 68); stroke-opacity: 1;"/><path class="point" transform="translate(1212.86,500.32)" d="M0.5,0A0.5,0.5 0 1,1 0,-0.5A0.5,0.5 0 0,1 0.5,0Z" style="opacity: 1; stroke-width: 1px; fill: rgb(100, 100, 100); fill-opacity: 1; stroke: rgb(68, 68, 68); stroke-opacity: 1;"/><path class="point" transform="translate(1505.71,370.33)" d="M0.5,0A0.5,0.5 0 1,1 0,-0.5A0.5,0.5 0 0,1 0.5,0Z" style="opacity: 1; stroke-width: 1px; fill: rgb(100, 100, 100); fill-opacity: 1; stroke: rgb(68, 68, 68); stroke-opacity: 1;"/><path class="point" transform="translate(1505.71,396.02)" d="M0.5,0A0.5,0.5 0 1,1 0,-0.5A0.5,0.5 0 0,1 0.5,0Z" style="opacity: 1; stroke-width: 1px; fill: rgb(100, 100, 100); fill-opacity: 1; stroke: rgb(68, 68, 68); stroke-opacity: 1;"/><path class="point" transform="translate(1232.13,383.17)" d="M0.5,0A0.5,0.5 0 1,1 0,-0.5A0.5,0.5 0 0,1 0.5,0Z" style="opacity: 1; stroke-width: 1px; fill: rgb(100, 100, 100); fill-opacity: 1; stroke: rgb(68, 68, 68); stroke-opacity: 1;"/><path class="point" transform="translate(958.54,207.46)" d="M0.5,0A0.5,0.5 0 1,1 0,-0.5A0.5,0.5 0 0,1 0.5,0Z" style="opacity: 1; stroke-width: 1px; fill: rgb(100, 100, 100); fill-opacity: 1; stroke: rgb(68, 68, 68); stroke-opacity: 1;"/><path class="point" transform="translate(1505.71,266.03)" d="M0.5,0A0.5,0.5 0 1,1 0,-0.5A0.5,0.5 0 0,1 0.5,0Z" style="opacity: 1; stroke-width: 1px; fill: rgb(100, 100, 100); fill-opacity: 1; stroke: rgb(68, 68, 68); stroke-opacity: 1;"/><path class="point" transform="translate(1505.71,136.04)" d="M0.5,0A0.5,0.5 0 1,1 0,-0.5A0.5,0.5 0 0,1 0.5,0Z" style="opacity: 1; stroke-width: 1px; fill: rgb(100, 100, 100); fill-opacity: 1; stroke: rgb(68, 68, 68); stroke-opacity: 1;"/><path class="point" transform="translate(1505.71,161.74)" d="M0.5,0A0.5,0.5 0 1,1 0,-0.5A0.5,0.5 0 0,1 0.5,0Z" style="opacity: 1; stroke-width: 1px; fill: rgb(100, 100, 100); fill-opacity: 1; stroke: rgb(68, 68, 68); stroke-opacity: 1;"/><path class="point" transform="translate(1232.13,148.89)" d="M0.5,0A0.5,0.5 0 1,1 0,-0.5A0.5,0.5 0 0,1 0.5,0Z" style="opacity: 1; stroke-width: 1px; fill: rgb(100, 100, 100); fill-opacity: 1; stroke: rgb(68, 68, 68); stroke-opacity: 1;"/><path class="point" transform="translate(627.14,363.14)" d="M0.5,0A0.5,0.5 0 1,1 0,-0.5A0.5,0.5 0 0,1 0.5,0Z" style="opacity: 1; stroke-width: 1px; fill: rgb(100, 100, 100); fill-opacity: 1; stroke: rgb(68, 68, 68); stroke-opacity: 1;"/><path class="point" transform="translate(920,480.29)" d="M0.5,0A0.5,0.5 0 1,1 0,-0.5A0.5,0.5 0 0,1 0.5,0Z" style="opacity: 1; stroke-width: 1px; fill: rgb(100, 100, 100); fill-opacity: 1; stroke: rgb(68, 68, 68); stroke-opacity: 1;"/><path class="point" transform="translate(1505.71,461.78)" d="M0.5,0A0.5,0.5 0 1,1 0,-0.5A0.5,0.5 0 0,1 0.5,0Z" style="opacity: 1; stroke-width: 1px; fill: rgb(100, 100, 100); fill-opacity: 1; stroke: rgb(68, 68, 68); stroke-opacity: 1;"/><path class="point" transform="translate(1505.71,344.63)" d="M0.5,0A0.5,0.5 0 1,1 0,-0.5A0.5,0.5 0 0,1 0.5,0Z" style="opacity: 1; stroke-width: 1px; fill: rgb(100, 100, 100); fill-opacity: 1; stroke: rgb(68, 68, 68); stroke-opacity: 1;"/><path class="point" transform="translate(920,246)" d="M0.5,0A0.5,0.5 0 1,1 0,-0.5A0.5,0.5 0 0,1 0.5,0Z" style="opacity: 1; stroke-width: 1px; fill: rgb(100, 100, 100); fill-opacity: 1; stroke: rgb(68, 68, 68); stroke-opacity: 1;"/><path class="point" transform="translate(1505.71,227.49)" d="M0.5,0A0.5,0.5 0 1,1 0,-0.5A0.5,0.5 0 0,1 0.5,0Z" style="opacity: 1; stroke-width: 1px; fill: rgb(100, 100, 100); fill-opacity: 1; stroke: rgb(68, 68, 68); stroke-opacity: 1;"/><path class="point" transform="translate(1505.71,110.35)" d="M0.5,0A0.5,0.5 0 1,1 0,-0.5A0.5,0.5 0 0,1 0.5,0Z" style="opacity: 1; stroke-width: 1px; fill: rgb(100, 100, 100); fill-opacity: 1; stroke: rgb(68, 68, 68); stroke-opacity: 1;"/></g><g class="text"><g class="textpoint" transform="translate(1.625,3.5)"><text x="665.68" y="324.6" text-anchor="start" style="font-family: Balto; font-size: 14px; fill: rgb(0, 0, 0); fill-opacity: 1; white-space: pre;">		T1</text></g><g class="textpoint" transform="translate(1.625,3.5)"><text x="958.54" y="441.75" text-anchor="start" style="font-family: Balto; font-size: 14px; fill: rgb(0, 0, 0); fill-opacity: 1; white-space: pre;">		T2</text></g><g class="textpoint" transform="translate(1.625,3.5)"><text x="1212.86" y="500.32" text-anchor="start" style="font-family: Balto; font-size: 14px; fill: rgb(0, 0, 0); fill-opacity: 1; white-space: pre;">		-</text></g><g class="textpoint" transform="translate(1.625,3.5)"><text x="1505.71" y="370.33" text-anchor="start" style="font-family: Balto; font-size: 14px; fill: rgb(0, 0, 0); fill-opacity: 1; white-space: pre;">		t2_gB_human</text></g><g class="textpoint" transform="translate(1.625,3.5)"><text x="1505.71" y="396.02" text-anchor="start" style="font-family: Balto; font-size: 14px; fill: rgb(0, 0, 0); fill-opacity: 1; white-space: pre;">		t1_gB_human</text></g><g class="textpoint" transform="translate(1.625,3.5)"><text x="1232.13" y="383.17" text-anchor="start" style="font-family: Balto; font-size: 14px; fill: rgb(0, 0, 0); fill-opacity: 1; white-space: pre;">		T3</text></g><g class="textpoint" transform="translate(1.625,3.5)"><text x="958.54" y="207.46" text-anchor="start" style="font-family: Balto; font-size: 14px; fill: rgb(0, 0, 0); fill-opacity: 1; white-space: pre;">		T4</text></g><g class="textpoint" transform="translate(1.625,3.5)"><text x="1505.71" y="266.03" text-anchor="start" style="font-family: Balto; font-size: 14px; fill: rgb(0, 0, 0); fill-opacity: 1; white-space: pre;">		t1_gA_mouse</text></g><g class="textpoint" transform="translate(1.625,3.5)"><text x="1505.71" y="136.04" text-anchor="start" style="font-family: Balto; font-size: 14px; fill: rgb(0, 0, 0); fill-opacity: 1; white-space: pre;">		t2_gB_mouse</text></g><g class="textpoint" transform="translate(1.625,3.5)"><text x="1505.71" y="161.74" text-anchor="start" style="font-family: Balto; font-size: 14px; fill: rgb(0, 0, 0); fill-opacity: 1; white-space: pre;">		t1_gB_mouse</text></g><g class="textpoint" transform="translate(1.625,3.5)"><text x="1232.13" y="148.89" text-anchor="start" style="font-family: Balto; font-size: 14px; fill: rgb(0, 0, 0); fill-opacity: 1; white-space: pre;">		T5</text></g><g class="textpoint" transform="translate(1.625,3.5)"><text x="627.14" y="363.14" text-anchor="start" style="font-family: Balto; font-size: 14px; fill: rgb(0, 0, 0); fill-opacity: 1; white-space: pre;">G1</text></g><g class="textpoint" transform="translate(1.625,3.5)"><text x="920" y="480.29" text-anchor="start" style="font-family: Balto; font-size: 14px; fill: rgb(0, 0, 0); fill-opacity: 1; white-space: pre;">G3</text></g><g class="textpoint" transform="translate(1.625,3.5)"><text x="1505.71" y="461.78" text-anchor="start" style="font-family: Balto; font-size: 14px; fill: rgb(0, 0, 0); fill-opacity: 1; white-space: pre;">gA_human</text></g><g class="textpoint" transform="translate(1.625,3.5)"><text x="1505.71" y="344.63" text-anchor="start" style="font-family: Balto; font-size: 14px; fill: rgb(0, 0, 0); fill-opacity: 1; white-space: pre;">gB_human</text></g><g class="textpoint" transform="translate(1.625,3.5)"><text x="920" y="246" text-anchor="start" style="font-family: Balto; font-size: 14px; fill: rgb(0, 0, 0); fill-opacity: 1; white-space: pre;">G4</text></g><g class="textpoint" transform="translate(1.625,3.5)"><text x="1505.71" y="227.49" text-anchor="start" style="font-family: Balto; font-size: 14px; fill: rgb(0, 0, 0); fill-opacity: 1; white-space: pre;">gA_mouse</text></g><g class="textpoint" transform="translate(1.625,3.5)"><text x="1505.71" y="110.35" text-anchor="start" style="font-family: Balto; font-size: 14px; fill: rgb(0, 0, 0); fill-opacity: 1; white-space: pre;">gB_mouse</text></g></g></g></g></g><g class="overplot"/><path class="xlines-above crisp" d="M80,920.5H1920" style="fill: none; stroke-width: 1px; stroke: rgb(255, 255, 255); stroke-opacity: 1;"/><path class="ylines-above crisp" d="M0,0" style="fill: none;"/><g class="overlines-above"/><g class="xaxislayer-above"/><g class="yaxislayer-above"/><g class="overaxes-above"/></g></g><g class="polarlayer"/><g class="ternarylayer"/><g class="geolayer"/><g class="funnelarealayer"/><g class="pielayer"/><g class="treemaplayer"/><g class="sunburstlayer"/><g class="glimages"/><defs id="topdefs-4282d9"><g class="clips"/></defs><g class="layer-above"><g class="imagelayer"/><g class="shapelayer"><path data-index="28" fill-rule="evenodd" d="M1284.07 609.1L1301.64 591.53Z" clip-path="url('#clip4282d9xy')" style="opacity: 1; stroke: rgb(255, 0, 0); stroke-opacity: 1; fill: rgb(255, 255, 255); fill-opacity: 1; stroke-width: 2px;"/><path data-index="29" fill-rule="evenodd" d="M1301.64 609.1L1284.07 591.53Z" clip-path="url('#clip4282d9xy')" style="opacity: 1; stroke: rgb(255, 0, 0); stroke-opacity: 1; fill: rgb(255, 255, 255); fill-opacity: 1; stroke-width: 2px;"/><path data-index="36" fill-rule="evenodd" d="M1294.56 483.17L1312.13 489.03L1312.13 477.32Z" clip-path="url('#clip4282d9xy')" style="opacity: 1; stroke: rgb(0, 0, 0); stroke-opacity: 1; fill: rgb(0, 0, 0); fill-opacity: 1; stroke-width: 2px;"/><path data-index="47" fill-rule="evenodd" d="M1294.56 248.89L1312.13 254.75L1312.13 243.03Z" clip-path="url('#clip4282d9xy')" style="opacity: 1; stroke: rgb(0, 0, 0); stroke-opacity: 1; fill: rgb(0, 0, 0); fill-opacity: 1; stroke-width: 2px;"/></g></g><g class="infolayer"><g class="g-gtitle"><text class="gtitle" x="100" y="50" text-anchor="start" dy="0em" style="font-family: Balto; font-size: 14px; fill: rgb(42, 63, 95); opacity: 1; font-weight: normal; white-space: pre;">Transcript-gene reconciliation</text></g><g class="g-xtitle"><text class="xtitle" x="1000" y="945.5" text-anchor="middle" style="font-family: Arial, sans-serif; font-size: 15px; fill: rgb(0, 0, 0); opacity: 1; font-weight: normal; white-space: pre;">The Reconciliation cost is : 2 creation(s) + 1 loss = 3 event(s)</text></g><g class="g-ytitle"/></g></svg>